<?xml version="1.0" encoding="utf-8"?>
<!-- Generator: Adobe Illustrator 24.1.0, SVG Export Plug-In . SVG Version: 6.00 Build 0)  -->
<svg version="1.1" id="Layer_1" xmlns="http://www.w3.org/2000/svg" xmlns:xlink="http://www.w3.org/1999/xlink" x="0px" y="0px"
	 viewBox="0 0 795 300" style="enable-background:new 0 0 795 300;" xml:space="preserve">
<style type="text/css">
	.st0{fill:#FFFFFF;}
	.st1{fill:#FF4040;}
</style>
<path class="st0" d="M398-13v-144h24.1v66.8l57.5-66.8h29.6l-61.9,70.6L513.4-13h-30.6l-60.7-67.2V-13H398z"/>
<path class="st0" d="M523.5-13v-108h21.3v26.3l-2.6-3.4c1.3-3.6,3.1-6.9,5.3-9.8c2.3-3,5-5.5,8.1-7.4c2.7-1.8,5.6-3.2,8.8-4.2
	c3.3-1.1,6.6-1.7,10-1.9c3.4-0.3,6.7-0.1,9.9,0.4v22.5c-3.2-0.9-6.9-1.2-11.1-0.9c-4.1,0.3-7.9,1.5-11.2,3.5
	c-3.3,1.8-6.1,4.1-8.2,6.9c-2.1,2.8-3.6,6-4.6,9.6c-1,3.5-1.5,7.4-1.5,11.5V-13H523.5z"/>
<path class="st0" d="M644.4-10c-10.9,0-20.5-2.4-28.8-7.1c-8.3-4.7-14.7-11.3-19.4-19.7c-4.6-8.4-6.9-18.1-6.9-29
	c0-11.8,2.3-22,6.8-30.7c4.5-8.7,10.8-15.5,18.9-20.3c8.1-4.8,17.4-7.2,28-7.2c11.2,0,20.7,2.6,28.5,7.9
	c7.9,5.2,13.7,12.6,17.5,22.1c3.8,9.5,5.2,20.8,4.3,33.7h-23.9v-8.8c-0.1-11.7-2.1-20.3-6.2-25.7c-4.1-5.4-10.5-8.1-19.2-8.1
	c-9.9,0-17.2,3.1-22,9.2c-4.8,6.1-7.2,15-7.2,26.7c0,10.9,2.4,19.4,7.2,25.4c4.8,6,11.8,9,21,9c5.9,0,11-1.3,15.3-3.9
	c4.3-2.7,7.7-6.5,10-11.5l23.8,7.2c-4.1,9.7-10.5,17.3-19.2,22.7C664.3-12.7,654.8-10,644.4-10z M607.2-60.3v-18.2h74.3v18.2H607.2z
	"/>
<path class="st0" d="M742.9-10c-7.8,0-14.4-1.5-19.8-4.4c-5.4-3-9.5-7-12.3-11.9c-2.7-4.9-4.1-10.4-4.1-16.3c0-5.2,0.9-9.9,2.6-14
	c1.7-4.2,4.4-7.8,8-10.8c3.6-3.1,8.3-5.6,14-7.5c4.3-1.4,9.4-2.7,15.2-3.8c5.9-1.1,12.2-2.2,19-3.1c6.9-1,14-2.1,21.5-3.2l-8.6,4.9
	c0.1-7.5-1.6-13-5-16.5c-3.4-3.5-9.1-5.3-17.2-5.3c-4.9,0-9.6,1.1-14.1,3.4c-4.5,2.3-7.7,6.2-9.5,11.7l-22-6.9
	c2.7-9.1,7.7-16.5,15.2-22c7.5-5.5,17.7-8.3,30.4-8.3c9.6,0,18,1.6,25.3,4.7c7.3,3.1,12.8,8.3,16.3,15.4c1.9,3.8,3.1,7.7,3.5,11.7
	c0.4,3.9,0.6,8.2,0.6,12.9V-13h-21.1v-23.4l3.5,3.8c-4.9,7.8-10.6,13.5-17.1,17.2C760.7-11.8,752.6-10,742.9-10z M747.7-29.2
	c5.5,0,10.1-1,14-2.9c3.9-1.9,6.9-4.3,9.2-7.1c2.3-2.8,3.9-5.4,4.7-7.9c1.3-3.1,2-6.6,2.1-10.5c0.2-4,0.3-7.2,0.3-9.7l7.4,2.2
	c-7.3,1.1-13.5,2.1-18.7,3s-9.7,1.7-13.4,2.5c-3.7,0.7-7,1.6-9.9,2.5c-2.8,1-5.2,2.2-7.1,3.5c-1.9,1.3-3.4,2.9-4.5,4.6
	c-1,1.7-1.5,3.8-1.5,6.1c0,2.7,0.7,5,2,7.1c1.3,2,3.3,3.6,5.8,4.8C740.7-29.8,743.9-29.2,747.7-29.2z"/>
<path class="st0" d="M887.2-13c-7.1,1.3-14.1,1.9-21,1.7c-6.8-0.1-12.9-1.4-18.3-3.7c-5.4-2.4-9.5-6.2-12.3-11.3
	c-2.5-4.7-3.8-9.4-3.9-14.3c-0.1-4.9-0.2-10.4-0.2-16.5V-151h24v92.5c0,4.3,0,8.1,0.1,11.4c0.1,3.3,0.8,5.9,2.1,8
	c2.4,4,6.2,6.2,11.5,6.7c5.3,0.5,11.3,0.2,18-0.8V-13z M811.9-102.1V-121h75.3v18.9H811.9z"/>
<path class="st0" d="M908.4-137.4v-22.1h24.1v22.1H908.4z M908.4-13v-108h24.1v108H908.4z"/>
<path class="st0" d="M987.7-13l-39.2-108h24.1l27.2,78.3l27.1-78.3h24.2l-39.2,108H987.7z"/>
<path class="st0" d="M1108.1-10c-10.9,0-20.5-2.4-28.8-7.1c-8.3-4.7-14.7-11.3-19.4-19.7c-4.6-8.4-6.9-18.1-6.9-29
	c0-11.8,2.3-22,6.8-30.7c4.5-8.7,10.8-15.5,18.9-20.3c8.1-4.8,17.4-7.2,28-7.2c11.2,0,20.7,2.6,28.5,7.9
	c7.9,5.2,13.7,12.6,17.5,22.1c3.8,9.5,5.2,20.8,4.3,33.7h-23.9v-8.8c-0.1-11.7-2.1-20.3-6.2-25.7c-4.1-5.4-10.5-8.1-19.2-8.1
	c-9.9,0-17.2,3.1-22,9.2c-4.8,6.1-7.2,15-7.2,26.7c0,10.9,2.4,19.4,7.2,25.4c4.8,6,11.8,9,21,9c5.9,0,11-1.3,15.3-3.9
	c4.3-2.7,7.7-6.5,10-11.5l23.8,7.2c-4.1,9.7-10.5,17.3-19.2,22.7C1128-12.7,1118.5-10,1108.1-10z M1070.9-60.3v-18.2h74.3v18.2
	H1070.9z"/>
<path class="st0" d="M1167.3-13v-24.7h24.7V-13H1167.3z"/>
<g>
	<path class="st1" d="M774.2,150c0,27.6,0,55.2,0,82.8c0,6.1,0,6.1-6,6.2c-5.7,0-11.4,0-17.1,0c-5.9,0-5.9,0-5.9-5.7
		c0-18.6-0.1-37.1,0.1-55.7c0.1-4.3-1.5-5.7-5.5-5.4c-3.3,0.3-6.7,0.3-10.1,0c-4.2-0.3-5.2,1.5-5.2,5.4c0.1,18.6,0.1,37.1,0.1,55.7
		c0,5.7,0,5.7-5.8,5.7c-5.8,0-11.7-0.2-17.5,0.1c-3.9,0.2-5.2-1-5.2-5.1c0.2-47.8,0.1-95.6,0.1-143.3c0-4.1,0-8.2,0-12.3
		c0-10.8,6.1-17.2,17.1-17.3c19-0.2,38,0.1,57-0.1c4,0,4.1,2.1,4.1,5c0,16.4,0,32.7,0,49.1C774.2,126.6,774.2,138.3,774.2,150z
		 M745.2,117c0-8.8-0.1-17.5,0.1-26.3c0.1-3.3-1.3-4.5-4.4-4.4c-4.1,0.1-8.2,0.1-12.3,0c-2.7,0-4.1,1.2-4.1,3.9
		c0,17.8,0,35.6,0,53.4c0,2.7,1.3,3.5,3.8,3.5c4.4-0.1,8.8-0.1,13.1,0c2.9,0.1,3.8-1.1,3.8-3.9C745.1,134.5,745.2,125.7,745.2,117z"
		/>
	<path class="st1" d="M559.2,61c8.5,0,16.2,0,23.9,0c11.8,0,23.7,0,35.5,0c12.6,0,18.3,5.6,18.3,18.2c0,21.3-0.1,42.7,0.1,64
		c0.1,7.1-1.5,12.7-8.5,15.7c-0.3,0.1-0.5,0.7-0.9,1.3c1.1,0.6,2,1.1,3,1.6c3.9,1.9,6.2,4.9,6.2,9.3c0.1,21.5,0,43,0.1,64.4
		c0,2.7-1.2,3.6-3.7,3.5c-6.9-0.1-13.7-0.1-20.6,0c-3.5,0.1-4.5-1.2-4.4-4.6c0.2-18.9-0.1-37.7,0.2-56.6c0.1-4.5-1.3-6.1-5.7-5.7
		c-3.5,0.3-7,0.2-10.5,0c-3.4-0.2-4.6,1.2-4.6,4.6c0.1,18.9-0.1,37.7,0.2,56.6c0.1,4.4-1,6-5.6,5.7c-6-0.4-12-0.3-18,0
		c-4.1,0.2-5.1-1.2-5.1-5.2c0.1-56,0.1-111.9,0.1-167.9C559.2,64.5,559.2,63.1,559.2,61z M608.3,116.9c0-8.8-0.1-17.5,0-26.3
		c0-3-1.1-4.3-4.1-4.3c-4.1,0.1-8.2,0.1-12.3,0c-3.1-0.1-4.4,1.2-4.4,4.4c0.1,17.5,0.1,35.1,0,52.6c0,2.9,1.1,3.9,3.9,3.8
		c4.2-0.1,8.5-0.2,12.7,0c3.4,0.2,4.2-1.3,4.2-4.4C608.2,134.1,608.3,125.5,608.3,116.9z"/>
	<path class="st1" d="M440.3,61c8.9,0,17.4-0.1,25.8,0.1c0.8,0,2,1.3,2.3,2.3c0.4,1.2,0.1,2.6,0.1,3.9c0,46.5,0,92.9,0,139.4
		c0,7,0,7,7,7.1c7.6,0,15.2,0.1,22.8-0.1c3.2-0.1,4.5,0.7,4.4,4.1c-0.2,5.7-0.2,11.4,0,17.1c0.1,2.9-0.8,4.2-3.9,4.2
		c-18.3-0.1-36.5-0.1-54.8,0c-3.8,0-3.7-1.9-3.7-4.7c0-55.2,0-110.4,0-165.7C440.3,66.3,440.3,63.9,440.3,61z"/>
</g>
<g>
	<path class="st1" d="M292.1,254.8c0-11,0-21.5,0-32.1c-4.6-0.4-5.4,2-5.4,5.5c0.1,19.9,0,39.8,0,59.6c0,1.8,0,3.7,0,6.1
		c-1.8-0.5-3-0.8-4.2-1.3c-12.2-5-24.3-10.1-36.5-15c-2.8-1.1-3.8-2.6-3.8-5.7c0.1-20.6,0.1-41.2,0.1-61.8c0-1.4,0-2.8,0-4.8
		c-2.2,0.7-3.6,1.1-5.1,1.7c-13,5.3-25.9,10.8-38.9,16c-3,1.2-4,2.8-4,6c0.1,20.7,0,41.5,0.1,62.2c0,3.3-1.3,4.5-4,6
		c-8.3,4.7-15.9,4.4-24.9,0.5c-45.2-19.4-90.8-38-136.2-56.7c-3.9-1.6-5.2-3.5-5.2-7.8c0.2-55.2,0.2-110.4,0-165.6
		c0-4.2,1.4-5.8,5.1-7.4c48.2-19.8,96.3-39.9,144.5-59.7c2.1-0.9,5.1-1,7.2-0.1c48.5,19.9,96.9,40,145.4,60c3.6,1.5,4.8,3.3,4.8,7.2
		c-0.1,55.4-0.1,110.7,0,166.1c0,3.8-1,5.8-4.7,7.3c-10.2,3.9-20.1,8.2-30.2,12.4C295.1,253.9,293.8,254.2,292.1,254.8z M281,258.1
		c-2-1.7-3.2-2.7-4.4-3.8c-0.8,1.3-2.4,2.6-2.3,3.9c0,1.2,1.8,2.4,2.7,3.5C278.1,260.7,279.3,259.7,281,258.1z"/>
</g>
</svg>
