<?xml version="1.0" encoding="utf-8"?>
<!-- Generator: Adobe Illustrator 24.1.0, SVG Export Plug-In . SVG Version: 6.00 Build 0)  -->
<svg version="1.1" id="Layer_1" xmlns="http://www.w3.org/2000/svg" xmlns:xlink="http://www.w3.org/1999/xlink" x="0px" y="0px"
	 viewBox="0 0 795 300" style="enable-background:new 0 0 795 300;" xml:space="preserve">
<style type="text/css">
	.st0{fill:#FF3F3F;}
</style>
<g>
	<g>
		<path class="st0" d="M212.6,154.5h8.5l15.1,38.2H227l-2.8-7.6h-14.7l-2.8,7.6h-9.2L212.6,154.5z M212.4,177.5h8.9l-4.4-12.5h-0.1
			L212.4,177.5z"/>
		<path class="st0" d="M239.1,154.5h15.6c2.2,0,4.2,0.5,5.9,1.4c1.7,0.9,3.1,2.3,4.2,4c1,1.7,1.5,3.8,1.5,6.2s-0.5,4.4-1.3,5.9
			s-1.8,2.7-3.1,3.5c-1.2,0.8-2.3,1.3-3.4,1.4l9.2,15.8H258l-8.3-15.1h-2.1v15.1H239v-38.2L239.1,154.5L239.1,154.5z M247.8,171.6
			h3.8c1.5,0,2.9-0.3,4-1.2c1.2-0.8,1.7-2.1,1.7-4c0-2-0.6-3.2-1.7-3.9c-1.2-0.7-2.4-1.2-4-1.2h-3.9L247.8,171.6L247.8,171.6
			L247.8,171.6z"/>
		<path class="st0" d="M270.3,173.6c0-2.8,0.5-5.3,1.5-7.7s2.3-4.5,4.2-6.2c1.7-1.8,3.8-3.2,6.2-4.2c2.4-0.9,5-1.5,7.7-1.5
			c2.8,0,5.4,0.5,7.7,1.5c2.4,1,4.5,2.4,6.2,4.2s3.1,3.9,4.2,6.2c0.9,2.4,1.5,5,1.5,7.7c0,2.8-0.5,5.4-1.4,7.9
			c-0.9,2.4-2.3,4.5-4,6.4c-1.7,1.8-3.8,3.2-6.2,4.2c-2.4,1-5.1,1.5-7.9,1.5c-2.9,0-5.5-0.5-8-1.5s-4.5-2.4-6.2-4.2s-3.1-3.9-4-6.4
			C270.8,179,270.3,176.3,270.3,173.6z M300.2,193.9c1.2,0,2.1-0.1,3-0.3s1.6-0.6,2.1-0.8c0.6-0.3,0.8-0.5,0.9-0.6l2.9,5.7
			c-0.6,0.9-1.6,1.8-3.1,2.8c-1.5,0.9-3.5,1.3-5.8,1.3c-1.4,0-2.7-0.1-3.6-0.5c-1-0.3-2-0.7-2.8-1.2s-1.7-0.8-2.8-1.2
			s-2.2-0.5-3.7-0.5c-1.2,0-2.2,0.2-3.1,0.6c-0.9,0.3-1.6,0.7-2.1,1s-0.8,0.6-0.8,0.7l-3.6-4.2c1.2-1.4,2.8-2.5,4.7-3.4
			c2-0.9,4.2-1.3,6.7-1.3c1.6,0,3,0.1,4.2,0.5c1.2,0.3,2.3,0.7,3.4,0.9C297.7,193.8,298.8,193.9,300.2,193.9z M279.2,173.6
			c0,2.2,0.5,4.2,1.4,5.9s2.2,3.1,3.7,4.2c1.6,1,3.5,1.6,5.5,1.6s3.9-0.6,5.5-1.6s2.9-2.4,3.7-4.2c0.9-1.7,1.4-3.7,1.4-5.9
			s-0.5-4.2-1.4-5.9s-2.2-3.1-3.7-4.2c-1.6-1-3.5-1.6-5.5-1.6s-3.9,0.6-5.5,1.6s-2.9,2.4-3.7,4.2
			C279.6,169.4,279.2,171.4,279.2,173.6z"/>
		<path class="st0" d="M335.8,154.5h8.7V178c0,3.1-0.6,5.9-1.8,8.2c-1.3,2.3-3,4-5.3,5.3s-5.1,1.8-8.2,1.8c-3.2,0-6-0.6-8.3-1.8
			s-4-3-5.3-5.3s-1.8-5.1-1.8-8.2v-23.5h8.7v23c0,1.7,0.2,3.2,0.8,4.4c0.6,1.2,1.4,2.1,2.3,2.7c1,0.6,2.2,0.9,3.6,0.9
			s2.5-0.3,3.6-0.9s1.7-1.5,2.3-2.7c0.6-1.2,0.8-2.7,0.8-4.4v-23H335.8z"/>
		<path class="st0" d="M350.8,154.5h8.7v38.2h-8.7V154.5z"/>
		<path class="st0" d="M373,162.1h-9.1v-7.6h26.9v7.6h-9.1v30.6H373V162.1z"/>
		<path class="st0" d="M395.2,154.5h24.4v7.6h-15.8v7.7h15.6v7.4h-15.6v7.9h15.8v7.6h-24.4V154.5L395.2,154.5z"/>
		<path class="st0" d="M446.4,184.9c1.7,0,3.4-0.2,4.9-0.8s2.5-1,3.2-1.5l3.7,7.4c-0.9,0.8-2.4,1.5-4.6,2.3s-4.7,1.2-7.9,1.2
			c-2.8,0-5.4-0.5-8-1.5c-2.4-1-4.6-2.4-6.5-4.2c-1.8-1.7-3.4-3.9-4.4-6.2c-1-2.4-1.6-5-1.6-7.9s0.6-5.4,1.6-7.9s2.5-4.5,4.4-6.4
			c1.8-1.8,4-3.2,6.6-4.2c2.4-1,5.1-1.5,8-1.5c3,0,5.7,0.3,7.9,1.2c2.2,0.8,3.7,1.6,4.6,2.3l-3.7,7.4c-0.7-0.6-1.8-1-3.2-1.5
			c-1.5-0.5-3.1-0.8-4.9-0.8c-2,0-3.7,0.3-5.2,0.9s-2.7,1.4-3.7,2.5c-1,1-1.7,2.3-2.2,3.6c-0.5,1.4-0.7,2.8-0.7,4.2
			c0,1.5,0.2,2.9,0.7,4.3c0.5,1.4,1.3,2.5,2.2,3.6c1,1,2.2,1.8,3.7,2.5C442.8,184.5,444.5,184.9,446.4,184.9z"/>
		<path class="st0" d="M470.6,162.1h-9.1v-7.6h26.8v7.6h-9.1v30.6h-8.7v-30.6H470.6z"/>
		<path class="st0" d="M515.1,154.5h8.7V178c0,3.1-0.6,5.9-1.8,8.2s-3,4-5.3,5.3s-5.1,1.8-8.2,1.8c-3.2,0-6-0.6-8.3-1.8
			s-4-3-5.3-5.3s-1.8-5.1-1.8-8.2v-23.5h8.7v23c0,1.7,0.2,3.2,0.8,4.4c0.6,1.2,1.4,2.1,2.3,2.7c1,0.6,2.2,0.9,3.6,0.9
			s2.5-0.3,3.6-0.9c1-0.6,1.7-1.5,2.3-2.7s0.8-2.7,0.8-4.4L515.1,154.5L515.1,154.5z"/>
		<path class="st0" d="M529.8,154.5h15.6c2.2,0,4.2,0.5,5.9,1.4s3.1,2.3,4.2,4c1,1.7,1.5,3.8,1.5,6.2s-0.5,4.4-1.3,5.9
			s-1.8,2.7-3.1,3.5c-1.2,0.8-2.3,1.3-3.4,1.4l9.2,15.8h-9.7l-8.3-15.1h-2.1v15.1h-8.7v-38.2L529.8,154.5L529.8,154.5z M538.5,171.6
			h3.8c1.5,0,2.9-0.3,4-1.2s1.7-2.1,1.7-4c0-2-0.6-3.2-1.7-3.9c-1.2-0.7-2.4-1.2-4-1.2h-3.9v10.3L538.5,171.6L538.5,171.6z"/>
		<path class="st0" d="M573.7,154.5h8.5l15.1,38.2h-9.2l-2.8-7.6h-14.7l-2.8,7.6h-9.2L573.7,154.5z M573.7,177.5h8.9l-4.4-12.5h-0.1
			L573.7,177.5z"/>
	</g>
	<g>
		<path class="st0" d="M197.5,98.9h9.9v35h15.8v8.7h-25.8V98.9H197.5z"/>
		<path class="st0" d="M227.2,120.8c0-3.2,0.6-6.1,1.7-8.9s2.7-5.2,4.7-7.2c2.1-2.1,4.4-3.7,7.2-4.9c2.8-1.2,5.7-1.7,8.9-1.7
			s6.2,0.6,8.9,1.7c2.7,1.2,5.1,2.8,7.2,4.9s3.6,4.5,4.7,7.2c1.2,2.8,1.6,5.7,1.6,8.9c0,3.2-0.6,6.2-1.6,8.9c-1,2.8-2.7,5.2-4.6,7.3
			s-4.4,3.7-7.2,4.9c-2.8,1.2-5.8,1.7-9,1.7c-3.4,0-6.5-0.6-9.1-1.7c-2.8-1.2-5.1-2.8-7.2-4.9c-2-2.1-3.5-4.5-4.6-7.3
			C227.8,126.9,227.2,123.9,227.2,120.8z M237.6,120.8c0,2.5,0.5,4.7,1.5,6.8c1,2.1,2.4,3.6,4.3,4.9c1.8,1.2,3.9,1.8,6.4,1.8
			c2.4,0,4.5-0.6,6.4-1.8c1.8-1.2,3.2-2.8,4.3-4.9c1-2.1,1.5-4.3,1.5-6.8s-0.5-4.7-1.5-6.8c-1-2-2.4-3.6-4.3-4.9
			c-1.8-1.2-3.9-1.8-6.4-1.8c-2.4,0-4.5,0.6-6.4,1.8c-1.8,1.2-3.2,2.8-4.3,4.9C238.1,116,237.6,118.2,237.6,120.8z"/>
		<path class="st0" d="M278.5,98.9h35.9l-21.7,35H313v8.7h-37.6l21.7-35h-18.6V98.9C278.5,98.9,278.5,98.9,278.5,98.9z"/>
		<path class="st0" d="M333.7,98.9h9.8l17.2,43.8h-10.6l-3.1-8.8h-16.8l-3.2,8.8h-10.6L333.7,98.9z M333.6,125.2h10.3l-5.1-14.3
			h-0.1L333.6,125.2z"/>
		<path class="st0" d="M381.7,98.9h17.9c2.5,0,4.9,0.6,6.8,1.6c2,1,3.6,2.5,4.7,4.6c1.2,2.1,1.7,4.4,1.7,7.2s-0.5,5-1.5,6.8
			c-1,1.7-2.2,3.1-3.6,3.9c-1.4,0.9-2.7,1.4-3.8,1.6l10.6,18.1h-11.1l-9.5-17.3h-2.4v17.3h-9.9L381.7,98.9L381.7,98.9z M391.6,118.5
			h4.4c1.7,0,3.4-0.5,4.6-1.3c1.3-0.8,2-2.4,2-4.6s-0.7-3.7-2-4.5s-2.9-1.3-4.6-1.3h-4.4V118.5z"/>
		<path class="st0" d="M432.2,98.9h9.8l17.2,43.8h-10.6l-3.1-8.8h-16.9l-3.2,8.8h-10.6L432.2,98.9z M431.9,125.2h10.3l-5.1-14.3H437
			L431.9,125.2z"/>
		<path class="st0" d="M509.3,98.9v43.8h-9.8V117l0.5-7.3l-1.7,8.4l-7.4,21.1h-9.7l-7.3-21.1l-1.6-8.4l0.5,7.3v25.8h-9.9V98.9h13.9
			l8.8,29.2l0.6,3.5l0.6-3.5l8.8-29.2C495.6,98.9,509.3,98.9,509.3,98.9z"/>
		<path class="st0" d="M515.8,120.8c0-3.2,0.6-6.1,1.7-8.9s2.7-5.2,4.7-7.2c2.1-2.1,4.4-3.7,7.2-4.9c2.8-1.2,5.7-1.7,8.9-1.7
			s6.2,0.6,8.9,1.7c2.7,1.2,5.1,2.8,7.2,4.9s3.6,4.5,4.7,7.2c1.2,2.8,1.6,5.7,1.6,8.9c0,3.2-0.6,6.2-1.6,8.9c-1,2.8-2.7,5.2-4.6,7.3
			c-2,2.1-4.4,3.7-7.2,4.9s-5.8,1.7-9,1.7c-3.4,0-6.5-0.6-9.1-1.7c-2.7-1.2-5.1-2.8-7.2-4.9c-2-2.1-3.5-4.5-4.6-7.3
			C516.4,126.9,515.8,123.9,515.8,120.8z M526.1,120.8c0,2.5,0.5,4.7,1.5,6.8c1,2.1,2.4,3.6,4.3,4.9c1.8,1.2,3.9,1.8,6.4,1.8
			s4.5-0.6,6.4-1.8c1.8-1.2,3.2-2.8,4.3-4.9c1-2.1,1.5-4.3,1.5-6.8s-0.5-4.7-1.5-6.8c-1-2-2.4-3.6-4.3-4.9c-1.8-1.2-3.9-1.8-6.4-1.8
			s-4.5,0.6-6.4,1.8c-1.8,1.2-3.2,2.8-4.3,4.9C526.7,116,526.1,118.2,526.1,120.8z"/>
		<path class="st0" d="M582.4,98.1c2.8,0,5.1,0.3,7.2,0.9c2.1,0.6,3.7,1.3,4.9,1.8c1.3,0.7,2,1.2,2.3,1.3l-4.7,8
			c-0.3-0.2-0.9-0.7-1.8-1.2c-0.8-0.5-1.8-0.9-3-1.4c-1.2-0.3-2.4-0.6-3.6-0.6c-1.7,0-3.1,0.3-4.2,0.9c-1,0.6-1.6,1.5-1.6,2.7
			c0,0.8,0.2,1.5,0.8,2.2s1.4,1.3,2.5,1.8c1.2,0.6,2.7,1.3,4.4,1.8c1.6,0.6,3.1,1.3,4.6,2.1c1.4,0.8,2.7,1.7,3.8,2.9
			c1,1.2,2,2.4,2.7,3.8c0.7,1.5,0.9,3.1,0.9,5c0,2.2-0.5,4.2-1.4,5.8s-2.1,3-3.7,4c-1.5,1-3.4,1.8-5.3,2.3c-2,0.5-4,0.8-6.1,0.8
			c-3,0-5.7-0.3-8.1-1c-2.4-0.7-4.3-1.4-5.8-2.2s-2.3-1.3-2.7-1.6l5-8.3c0.2,0.2,0.8,0.6,1.5,0.9c0.8,0.5,1.7,0.9,2.8,1.4
			c1.2,0.5,2.3,0.9,3.6,1.3c1.3,0.3,2.4,0.5,3.7,0.5c2.1,0,3.6-0.3,4.6-1.2c1-0.8,1.5-1.8,1.5-3.1c0-0.9-0.3-1.8-0.9-2.5
			c-0.7-0.7-1.6-1.5-2.9-2.1c-1.3-0.7-2.9-1.4-4.9-2.1c-2-0.8-3.7-1.7-5.4-2.8c-1.6-1.2-3-2.4-4-4.2c-1-1.6-1.5-3.7-1.5-6.1
			s0.7-4.6,2.1-6.4c1.4-1.7,3.2-3.2,5.4-4.2C577.3,98.6,579.7,98.1,582.4,98.1z"/>
	</g>
</g>
</svg>
