<?xml version="1.0" encoding="utf-8"?>
<!-- Generator: Adobe Illustrator 24.1.0, SVG Export Plug-In . SVG Version: 6.00 Build 0)  -->
<svg version="1.1" id="Layer_1" xmlns="http://www.w3.org/2000/svg" xmlns:xlink="http://www.w3.org/1999/xlink" x="0px" y="0px"
	 viewBox="0 0 795 300" style="enable-background:new 0 0 795 300;" xml:space="preserve">
<style type="text/css">
	.st0{fill:#FF3F3F;}
</style>
<g>
	<g>
		<path class="st0" d="M576.3,206.4c0-0.7,0-1.3,0-1.9c0-32.8,0-65.7,0-98.5c0-1,0-2,0.1-3c0.9-6.4,4.5-9.4,11.6-9.5
			c12.1-0.1,24.2,0,36.4-0.1c1,0,1.5,0.3,1.4,1.4c-0.1,0.3,0,0.6,0,0.9c0,36.2,0,72.4,0,108.5c0,2.1,0,2.1-2.2,2.1
			c-4.7,0-9.5,0-14.1,0c-0.5,0-1.1,0-1.8,0c-0.1-0.8-0.1-1.4-0.1-2c0-12.6,0-25.2,0-37.7c0-1.9,0-1.9-1.9-1.9c-3.6,0-7.1,0-10.8,0
			c-0.1,0.8-0.1,1.4-0.1,2c0,12.6,0,25.2,0,37.9c0,1.4-0.4,1.9-1.8,1.8c-4.9-0.1-9.9,0-14.8-0.1C577.6,206.5,577,206.4,576.3,206.4z
			 M594.6,129.3c0,5.9,0,11.8,0,17.7c0,1.1,0.4,1.5,1.4,1.4c3.4-0.1,6.7-0.1,10.1,0c1,0,1.4-0.3,1.4-1.4c0-11.9,0-23.7,0-35.6
			c0-1.1-0.4-1.5-1.5-1.4c-3.3,0.1-6.7,0.1-10,0c-1.2,0-1.5,0.4-1.5,1.6C594.7,117.4,594.6,123.4,594.6,129.3z"/>
		<path class="st0" d="M489.7,206.5c0-37.7,0-75.1,0-112.7c0.6-0.1,1.2-0.1,1.8-0.1c11.8,0,23.5,0,35.3,0c0.4,0,0.8,0,1.2,0
			c7.7,0.6,11,4,11.1,11.7c0.1,14,0,28,0,42c0,4.3-1.8,7.5-6,8.9c-0.2,0.1-0.4,0.3-0.8,0.5c0.5,0.3,0.8,0.5,1.2,0.5
			c3.7,1,5.6,3.2,5.7,7.1c0.1,3.4,0.1,6.7,0.1,10.1c0,10.1,0,20.3,0,30.4c0,1.3-0.3,1.8-1.6,1.7c-5-0.1-10-0.1-15,0
			c-1.4,0-1.6-0.5-1.6-1.8c0.1-12.5,0-25,0-37.5c0-2.7,0.3-2.4-2.3-2.4c-2.7,0-5.4,0-8,0s-2.3-0.3-2.3,2.3c0,12.3,0,24.6,0,37
			c0,2.7,0.3,2.4-2.5,2.4c-4.7,0-9.3,0-14,0C490.9,206.5,490.3,206.5,489.7,206.5z M520.7,129.3c0-6,0-11.9,0-17.9
			c0-1.1-0.3-1.5-1.4-1.5c-3.3,0.1-6.5,0.1-9.9,0c-1.2,0-1.6,0.4-1.6,1.6c0.1,11.8,0.1,23.6,0,35.5c0,1.1,0.3,1.5,1.4,1.5
			c3.3-0.1,6.5-0.1,9.9,0c1.1,0,1.6-0.3,1.6-1.6C520.7,141.1,520.7,135.2,520.7,129.3z"/>
		<path class="st0" d="M414.4,206.5c0-0.7,0-1.4,0-2c0-36.3,0-72.6,0-108.9c0-2,0-2,2-2c4.8,0,9.5,0.1,14.3-0.1
			c1.6,0,1.9,0.5,1.9,1.9c-0.1,30.7,0,61.3,0,91.9c0,3-0.2,2.7,2.6,2.7c5.7,0,11.4,0.1,17.1,0c1.3,0,1.7,0.4,1.7,1.7
			c-0.1,4.4-0.1,8.8,0,13.3c0,1.2-0.3,1.6-1.5,1.6L414.4,206.5z"/>
	</g>
	<path class="st0" d="M266.9,52.8l-97.8,40.7v112.7l97.8,41l10.9-4.5l0,0v-3.9v-41.6l29.7-12.4v45.4l29.2,11.6v-23.7v-21.6l2.6-1
		v21.6l25.5-10.7V93.6L266.9,52.8z M330,219.8c-0.8,0-1.5-1-1.5-2.1s0.6-2.1,1.5-2.1s1.5,1,1.5,2.1S330.8,219.8,330,219.8z"/>
</g>
</svg>
