<?xml version="1.0" encoding="utf-8"?>
<!-- Generator: Adobe Illustrator 24.1.0, SVG Export Plug-In . SVG Version: 6.00 Build 0)  -->
<svg version="1.1" id="Layer_1" xmlns="http://www.w3.org/2000/svg" xmlns:xlink="http://www.w3.org/1999/xlink" x="0px" y="0px"
	 viewBox="0 0 795 300" style="enable-background:new 0 0 795 300;" xml:space="preserve">
<style type="text/css">
	.st0{fill:#FF3F3F;}
</style>
<path class="st0" d="M397.4,52.8l-97.8,40.7v112.7l97.8,41l10.9-4.5l0,0v-3.9v-41.6l29.7-12.4v45.4l29.2,11.6v-23.7v-21.6l2.6-1
	v21.6l25.5-10.7V93.6L397.4,52.8z M460.5,219.8c-0.8,0-1.5-1-1.5-2.1s0.6-2.1,1.5-2.1s1.5,1,1.5,2.1S461.4,219.8,460.5,219.8z"/>
<path class="st0" d="M184.8-313.6L47.5-256.5v158.2l137.3,57.6l15.3-6.4l0,0v-5.5v-58.3l41.7-17.4v63.7l41,16.3v-33.5v-30.4l3.6-1.4
	v30.4l35.8-15v-158.3L184.8-313.6z M273.4-79.3c-1.2,0-2.1-1.4-2.1-3s0.9-3,2.1-3s2.1,1.4,2.1,3C275.5-80.6,274.6-79.3,273.4-79.3z"
	/>
<g>
	<g>
		<path class="st0" d="M388.6-173.2h7.4l13.1,33.1h-8l-2.4-6.6H386l-2.4,6.6h-8L388.6-173.2z M388.5-153.3h7.7l-3.8-10.8h-0.1
			L388.5-153.3z"/>
		<path class="st0" d="M411.6-173.2h13.5c1.9,0,3.6,0.4,5.1,1.2s2.7,2,3.6,3.5s1.3,3.3,1.3,5.4s-0.4,3.8-1.1,5.1s-1.6,2.3-2.7,3
			c-1,0.7-2,1.1-2.9,1.2l8,13.7H428l-7.2-13.1H419v13.1h-7.5v-33.1H411.6z M419.1-158.4h3.3c1.3,0,2.5-0.3,3.5-1s1.5-1.8,1.5-3.5
			s-0.5-2.8-1.5-3.4c-1-0.6-2.1-1-3.5-1H419v8.9H419.1z"/>
		<path class="st0" d="M438.6-156.7c0-2.4,0.4-4.6,1.3-6.7s2-3.9,3.6-5.4c1.5-1.6,3.3-2.8,5.4-3.6c2.1-0.9,4.3-1.3,6.7-1.3
			c2.4,0,4.7,0.4,6.7,1.3c2.1,0.9,3.9,2.1,5.4,3.6c1.5,1.6,2.7,3.4,3.6,5.4c0.8,2.1,1.3,4.3,1.3,6.7s-0.4,4.7-1.2,6.8
			s-2,3.9-3.5,5.5s-3.3,2.8-5.4,3.6s-4.4,1.3-6.8,1.3c-2.5,0-4.8-0.4-6.9-1.3s-3.9-2.1-5.4-3.6c-1.5-1.6-2.7-3.4-3.5-5.5
			C439-152,438.6-154.3,438.6-156.7z M464.4-139.1c1,0,1.8-0.1,2.6-0.3c0.8-0.2,1.4-0.5,1.8-0.7c0.5-0.3,0.7-0.4,0.8-0.5l2.5,4.9
			c-0.5,0.8-1.4,1.6-2.7,2.4c-1.3,0.8-3,1.1-5,1.1c-1.2,0-2.3-0.1-3.1-0.4c-0.9-0.3-1.7-0.6-2.4-1s-1.5-0.7-2.4-1s-1.9-0.4-3.2-0.4
			c-1,0-1.9,0.2-2.7,0.5c-0.8,0.3-1.4,0.6-1.8,0.9c-0.4,0.3-0.7,0.5-0.7,0.6l-3.1-3.6c1-1.2,2.4-2.2,4.1-2.9
			c1.7-0.8,3.6-1.1,5.8-1.1c1.4,0,2.6,0.1,3.6,0.4c1,0.3,2,0.6,2.9,0.8C462.4-139.2,463.4-139.1,464.4-139.1z M446.4-156.7
			c0,1.9,0.4,3.6,1.2,5.1c0.8,1.5,1.9,2.7,3.2,3.6c1.4,0.9,3,1.4,4.8,1.4s3.4-0.5,4.8-1.4s2.5-2.1,3.2-3.6c0.8-1.5,1.2-3.2,1.2-5.1
			c0-1.9-0.4-3.6-1.2-5.1c-0.8-1.5-1.9-2.7-3.2-3.6c-1.4-0.9-3-1.4-4.8-1.4s-3.4,0.5-4.8,1.4s-2.5,2.1-3.2,3.6
			C446.8-160.3,446.4-158.6,446.4-156.7z"/>
		<path class="st0" d="M495.3-173.2h7.5v20.3c0,2.7-0.5,5.1-1.6,7.1s-2.6,3.5-4.6,4.6s-4.4,1.6-7.1,1.6c-2.8,0-5.2-0.5-7.2-1.6
			s-3.5-2.6-4.6-4.6s-1.6-4.4-1.6-7.1v-20.3h7.5v19.9c0,1.5,0.2,2.8,0.7,3.8s1.2,1.8,2,2.3s1.9,0.8,3.1,0.8s2.2-0.3,3.1-0.8
			s1.5-1.3,2-2.3s0.7-2.3,0.7-3.8v-19.9H495.3z"/>
		<path class="st0" d="M508.4-173.2h7.5v33.1h-7.5L508.4-173.2L508.4-173.2z"/>
		<path class="st0" d="M527.4-166.6h-7.9v-6.6h23.3v6.6h-7.9v26.5h-7.5L527.4-166.6L527.4-166.6z"/>
		<path class="st0" d="M546.8-173.2h21.1v6.6h-13.7v6.7h13.5v6.4h-13.5v6.8h13.7v6.6h-21.1V-173.2z"/>
		<path class="st0" d="M591.1-146.9c1.5,0,2.9-0.2,4.2-0.7s2.2-0.9,2.8-1.3l3.2,6.4c-0.8,0.7-2.1,1.3-4,2s-4.1,1-6.8,1
			c-2.4,0-4.7-0.4-6.9-1.3c-2.1-0.9-4-2.1-5.6-3.6s-2.9-3.4-3.8-5.4c-0.9-2.1-1.4-4.3-1.4-6.8c0-2.4,0.5-4.7,1.4-6.8
			s2.2-3.9,3.8-5.5s3.5-2.8,5.7-3.6s4.4-1.3,6.9-1.3c2.6,0,4.9,0.3,6.8,1c1.9,0.7,3.2,1.4,4,2l-3.2,6.4c-0.6-0.5-1.6-0.9-2.8-1.3
			c-1.3-0.4-2.7-0.7-4.2-0.7c-1.7,0-3.2,0.3-4.5,0.8s-2.3,1.2-3.2,2.2c-0.9,0.9-1.5,2-1.9,3.1c-0.4,1.2-0.6,2.4-0.6,3.6
			c0,1.3,0.2,2.5,0.6,3.7c0.4,1.2,1.1,2.2,1.9,3.1c0.9,0.9,1.9,1.6,3.2,2.2S589.4-146.9,591.1-146.9z"/>
		<path class="st0" d="M612.1-166.6h-7.9v-6.6h23.2v6.6h-7.9v26.5H612v-26.5H612.1z"/>
		<path class="st0" d="M650.6-173.2h7.5v20.3c0,2.7-0.5,5.1-1.6,7.1s-2.6,3.5-4.6,4.6s-4.4,1.6-7.1,1.6c-2.8,0-5.2-0.5-7.2-1.6
			s-3.5-2.6-4.6-4.6s-1.6-4.4-1.6-7.1v-20.3h7.5v19.9c0,1.5,0.2,2.8,0.7,3.8s1.2,1.8,2,2.3c0.9,0.5,1.9,0.8,3.1,0.8
			c1.2,0,2.2-0.3,3.1-0.8s1.5-1.3,2-2.3s0.7-2.3,0.7-3.8L650.6-173.2L650.6-173.2z"/>
		<path class="st0" d="M663.2-173.2h13.5c1.9,0,3.6,0.4,5.1,1.2s2.7,2,3.6,3.5s1.3,3.3,1.3,5.4s-0.4,3.8-1.1,5.1
			c-0.7,1.3-1.6,2.3-2.7,3c-1,0.7-2,1.1-2.9,1.2l8,13.7h-8.4l-7.2-13.1h-1.8v13.1h-7.5v-33.1H663.2z M670.7-158.4h3.3
			c1.3,0,2.5-0.3,3.5-1s1.5-1.8,1.5-3.5s-0.5-2.8-1.5-3.4c-1-0.6-2.1-1-3.5-1h-3.4v8.9H670.7z"/>
		<path class="st0" d="M701.3-173.2h7.4l13.1,33.1h-8l-2.4-6.6h-12.7l-2.4,6.6h-8L701.3-173.2z M701.2-153.3h7.7l-3.8-10.8H705
			L701.2-153.3z"/>
	</g>
	<g>
		<path class="st0" d="M375.6-221.3h8.6v30.3h13.7v7.5h-22.3L375.6-221.3L375.6-221.3z"/>
		<path class="st0" d="M401.3-202.4c0-2.8,0.5-5.3,1.5-7.7s2.3-4.5,4.1-6.2c1.8-1.8,3.8-3.2,6.2-4.2c2.4-1,4.9-1.5,7.7-1.5
			c2.8,0,5.4,0.5,7.7,1.5s4.4,2.4,6.2,4.2c1.8,1.8,3.1,3.9,4.1,6.2c1,2.4,1.4,4.9,1.4,7.7s-0.5,5.4-1.4,7.7s-2.3,4.5-4,6.3
			s-3.8,3.2-6.2,4.2s-5,1.5-7.8,1.5c-2.9,0-5.6-0.5-7.9-1.5s-4.4-2.4-6.2-4.2c-1.7-1.8-3-3.9-4-6.3
			C401.8-197.1,401.3-199.7,401.3-202.4z M410.2-202.4c0,2.2,0.4,4.1,1.3,5.9s2.1,3.1,3.7,4.2c1.6,1,3.4,1.6,5.5,1.6
			s3.9-0.5,5.5-1.6s2.8-2.4,3.7-4.2c0.9-1.8,1.3-3.7,1.3-5.9s-0.4-4.1-1.3-5.9c-0.9-1.7-2.1-3.1-3.7-4.2c-1.6-1-3.4-1.6-5.5-1.6
			s-3.9,0.5-5.5,1.6c-1.6,1-2.8,2.4-3.7,4.2C410.7-206.5,410.2-204.6,410.2-202.4z"/>
		<path class="st0" d="M445.7-221.3h31.1L458-191h17.6v7.5H443l18.8-30.3h-16.1L445.7-221.3L445.7-221.3z"/>
		<path class="st0" d="M493.5-221.3h8.5l14.9,37.9h-9.2L505-191h-14.6l-2.8,7.6h-9.2L493.5-221.3z M493.4-198.6h8.9l-4.4-12.4h-0.1
			L493.4-198.6z"/>
		<path class="st0" d="M535-221.3h15.4c2.2,0,4.2,0.5,5.9,1.4s3.1,2.2,4.1,4c1,1.7,1.5,3.8,1.5,6.2s-0.4,4.3-1.3,5.9
			c-0.9,1.5-1.9,2.7-3.1,3.4c-1.2,0.8-2.3,1.2-3.3,1.4l9.2,15.7h-9.6l-8.2-15h-2.1v15H535V-221.3z M543.6-204.4h3.8
			c1.5,0,2.9-0.4,4-1.1c1.1-0.7,1.7-2.1,1.7-4s-0.6-3.2-1.7-3.9c-1.1-0.7-2.5-1.1-4-1.1h-3.8V-204.4z"/>
		<path class="st0" d="M578.7-221.3h8.5l14.9,37.9H593l-2.7-7.6h-14.6l-2.8,7.6h-9.2L578.7-221.3z M578.5-198.6h8.9L583-211h-0.1
			L578.5-198.6z"/>
		<path class="st0" d="M645.5-221.3v37.9H637v-22.3l0.4-6.3l-1.5,7.3l-6.4,18.3h-8.4l-6.3-18.3l-1.4-7.3l0.4,6.3v22.3h-8.6v-37.9h12
			l7.6,25.3l0.5,3l0.5-3l7.6-25.3L645.5-221.3L645.5-221.3z"/>
		<path class="st0" d="M651.1-202.4c0-2.8,0.5-5.3,1.5-7.7s2.3-4.5,4.1-6.2c1.8-1.8,3.8-3.2,6.2-4.2s4.9-1.5,7.7-1.5
			s5.4,0.5,7.7,1.5s4.4,2.4,6.2,4.2s3.1,3.9,4.1,6.2c1,2.4,1.4,4.9,1.4,7.7s-0.5,5.4-1.4,7.7c-0.9,2.4-2.3,4.5-4,6.3
			s-3.8,3.2-6.2,4.2s-5,1.5-7.8,1.5c-2.9,0-5.6-0.5-7.9-1.5s-4.4-2.4-6.2-4.2c-1.7-1.8-3-3.9-4-6.3
			C651.5-197.1,651.1-199.7,651.1-202.4z M660-202.4c0,2.2,0.4,4.1,1.3,5.9c0.9,1.8,2.1,3.1,3.7,4.2c1.6,1,3.4,1.6,5.5,1.6
			s3.9-0.5,5.5-1.6s2.8-2.4,3.7-4.2s1.3-3.7,1.3-5.9s-0.4-4.1-1.3-5.9c-0.9-1.7-2.1-3.1-3.7-4.2c-1.6-1-3.4-1.6-5.5-1.6
			s-3.9,0.5-5.5,1.6c-1.6,1-2.8,2.4-3.7,4.2C660.4-206.5,660-204.6,660-202.4z"/>
		<path class="st0" d="M708.6-222c2.4,0,4.4,0.3,6.2,0.8s3.2,1.1,4.2,1.6c1.1,0.6,1.7,1,2,1.1l-4.1,6.9c-0.3-0.2-0.8-0.6-1.6-1
			c-0.7-0.4-1.6-0.8-2.6-1.2c-1-0.3-2.1-0.5-3.1-0.5c-1.5,0-2.7,0.3-3.6,0.8c-0.9,0.5-1.4,1.3-1.4,2.3c0,0.7,0.2,1.3,0.7,1.9
			c0.5,0.6,1.2,1.1,2.2,1.6s2.3,1.1,3.8,1.6c1.4,0.5,2.7,1.1,4,1.8c1.2,0.7,2.3,1.5,3.3,2.5c0.9,1,1.7,2.1,2.3,3.3
			c0.6,1.3,0.8,2.7,0.8,4.3c0,1.9-0.4,3.6-1.2,5s-1.8,2.6-3.2,3.5c-1.3,0.9-2.9,1.6-4.6,2c-1.7,0.4-3.5,0.7-5.3,0.7
			c-2.6,0-4.9-0.3-7-0.9c-2.1-0.6-3.7-1.2-5-1.9s-2-1.1-2.3-1.4l4.3-7.2c0.2,0.2,0.7,0.5,1.3,0.8c0.7,0.4,1.5,0.8,2.4,1.2
			c1,0.4,2,0.8,3.1,1.1s2.1,0.4,3.2,0.4c1.8,0,3.1-0.3,4-1s1.3-1.6,1.3-2.7c0-0.8-0.3-1.6-0.8-2.2c-0.6-0.6-1.4-1.3-2.5-1.8
			c-1.1-0.6-2.5-1.2-4.2-1.8c-1.7-0.7-3.2-1.5-4.7-2.4c-1.4-1-2.6-2.1-3.5-3.6c-0.9-1.4-1.3-3.2-1.3-5.3s0.6-4,1.8-5.5
			c1.2-1.6,2.8-2.8,4.7-3.6C704.3-221.6,706.4-222,708.6-222z"/>
	</g>
</g>
</svg>
