<?xml version="1.0" encoding="utf-8"?>
<!-- Generator: Adobe Illustrator 24.1.0, SVG Export Plug-In . SVG Version: 6.00 Build 0)  -->
<svg version="1.1" id="Layer_1" xmlns="http://www.w3.org/2000/svg" xmlns:xlink="http://www.w3.org/1999/xlink" x="0px" y="0px"
	 viewBox="0 0 795 300" style="enable-background:new 0 0 795 300;" xml:space="preserve">
<style type="text/css">
	.st0{fill:#FFFFFF;}
	.st1{fill:#FF5757;}
</style>
<path class="st0" d="M398-13v-144h24.1v66.8l57.5-66.8h29.6l-61.9,70.6L513.4-13h-30.6l-60.7-67.2V-13H398z"/>
<path class="st0" d="M523.5-13v-108h21.3v26.3l-2.6-3.4c1.3-3.6,3.1-6.9,5.3-9.8c2.3-3,5-5.5,8.1-7.4c2.7-1.8,5.6-3.2,8.8-4.2
	c3.3-1.1,6.6-1.7,10-1.9c3.4-0.3,6.7-0.1,9.9,0.4v22.5c-3.2-0.9-6.9-1.2-11.1-0.9c-4.1,0.3-7.9,1.5-11.2,3.5
	c-3.3,1.8-6.1,4.1-8.2,6.9c-2.1,2.8-3.6,6-4.6,9.6c-1,3.5-1.5,7.4-1.5,11.5V-13H523.5z"/>
<path class="st0" d="M644.4-10c-10.9,0-20.5-2.4-28.8-7.1s-14.7-11.3-19.4-19.7c-4.6-8.4-6.9-18.1-6.9-29c0-11.8,2.3-22,6.8-30.7
	s10.8-15.5,18.9-20.3c8.1-4.8,17.4-7.2,28-7.2c11.2,0,20.7,2.6,28.5,7.9c7.9,5.2,13.7,12.6,17.5,22.1s5.2,20.8,4.3,33.7h-23.9v-8.8
	c-0.1-11.7-2.1-20.3-6.2-25.7c-4.1-5.4-10.5-8.1-19.2-8.1c-9.9,0-17.2,3.1-22,9.2s-7.2,15-7.2,26.7c0,10.9,2.4,19.4,7.2,25.4
	s11.8,9,21,9c5.9,0,11-1.3,15.3-3.9c4.3-2.7,7.7-6.5,10-11.5l23.8,7.2c-4.1,9.7-10.5,17.3-19.2,22.7C664.3-12.7,654.8-10,644.4-10z
	 M607.2-60.3v-18.2h74.3v18.2H607.2z"/>
<path class="st0" d="M742.9-10c-7.8,0-14.4-1.5-19.8-4.4c-5.4-3-9.5-7-12.3-11.9c-2.7-4.9-4.1-10.4-4.1-16.3c0-5.2,0.9-9.9,2.6-14
	c1.7-4.2,4.4-7.8,8-10.8c3.6-3.1,8.3-5.6,14-7.5c4.3-1.4,9.4-2.7,15.2-3.8c5.9-1.1,12.2-2.2,19-3.1c6.9-1,14-2.1,21.5-3.2l-8.6,4.9
	c0.1-7.5-1.6-13-5-16.5s-9.1-5.3-17.2-5.3c-4.9,0-9.6,1.1-14.1,3.4s-7.7,6.2-9.5,11.7l-22-6.9c2.7-9.1,7.7-16.5,15.2-22
	s17.7-8.3,30.4-8.3c9.6,0,18,1.6,25.3,4.7s12.8,8.3,16.3,15.4c1.9,3.8,3.1,7.7,3.5,11.7c0.4,3.9,0.6,8.2,0.6,12.9V-13h-21.1v-23.4
	l3.5,3.8c-4.9,7.8-10.6,13.5-17.1,17.2C760.7-11.8,752.6-10,742.9-10z M747.7-29.2c5.5,0,10.1-1,14-2.9s6.9-4.3,9.2-7.1
	s3.9-5.4,4.7-7.9c1.3-3.1,2-6.6,2.1-10.5c0.2-4,0.3-7.2,0.3-9.7l7.4,2.2c-7.3,1.1-13.5,2.1-18.7,3s-9.7,1.7-13.4,2.5
	c-3.7,0.7-7,1.6-9.9,2.5c-2.8,1-5.2,2.2-7.1,3.5c-1.9,1.3-3.4,2.9-4.5,4.6c-1,1.7-1.5,3.8-1.5,6.1c0,2.7,0.7,5,2,7.1
	c1.3,2,3.3,3.6,5.8,4.8C740.7-29.8,743.9-29.2,747.7-29.2z"/>
<path class="st0" d="M887.2-13c-7.1,1.3-14.1,1.9-21,1.7c-6.8-0.1-12.9-1.4-18.3-3.7c-5.4-2.4-9.5-6.2-12.3-11.3
	c-2.5-4.7-3.8-9.4-3.9-14.3c-0.1-4.9-0.2-10.4-0.2-16.5V-151h24v92.5c0,4.3,0,8.1,0.1,11.4c0.1,3.3,0.8,5.9,2.1,8
	c2.4,4,6.2,6.2,11.5,6.7s11.3,0.2,18-0.8L887.2-13L887.2-13z M811.9-102.1V-121h75.3v18.9H811.9z"/>
<path class="st0" d="M908.4-137.4v-22.1h24.1v22.1H908.4z M908.4-13v-108h24.1v108H908.4z"/>
<path class="st0" d="M987.7-13l-39.2-108h24.1l27.2,78.3l27.1-78.3h24.2l-39.2,108H987.7z"/>
<path class="st0" d="M1108.1-10c-10.9,0-20.5-2.4-28.8-7.1s-14.7-11.3-19.4-19.7c-4.6-8.4-6.9-18.1-6.9-29c0-11.8,2.3-22,6.8-30.7
	s10.8-15.5,18.9-20.3s17.4-7.2,28-7.2c11.2,0,20.7,2.6,28.5,7.9c7.9,5.2,13.7,12.6,17.5,22.1s5.2,20.8,4.3,33.7h-23.9v-8.8
	c-0.1-11.7-2.1-20.3-6.2-25.7c-4.1-5.4-10.5-8.1-19.2-8.1c-9.9,0-17.2,3.1-22,9.2s-7.2,15-7.2,26.7c0,10.9,2.4,19.4,7.2,25.4
	c4.8,6,11.8,9,21,9c5.9,0,11-1.3,15.3-3.9c4.3-2.7,7.7-6.5,10-11.5l23.8,7.2c-4.1,9.7-10.5,17.3-19.2,22.7
	C1128-12.7,1118.5-10,1108.1-10z M1070.9-60.3v-18.2h74.3v18.2H1070.9z"/>
<path class="st0" d="M1167.3-13v-24.7h24.7V-13H1167.3z"/>
<g>
	<path class="st1" d="M153.7,0L2.8,62.8v173.9L153.7,300l16.8-7l0,0v-6v-64.1l45.8-19.1v70l45,17.9v-36.8v-33.3l4-1.5v33.2
		l39.3-16.5v-174L153.7,0z M251,257.5c-1.3,0-2.3-1.5-2.3-3.3s1-3.3,2.3-3.3s2.3,1.5,2.3,3.3S252.3,257.5,251,257.5z"/>
</g>
</svg>
