<?xml version="1.0" encoding="utf-8"?>
<!-- Generator: Adobe Illustrator 24.1.0, SVG Export Plug-In . SVG Version: 6.00 Build 0)  -->
<svg version="1.1" id="Layer_1" xmlns="http://www.w3.org/2000/svg" xmlns:xlink="http://www.w3.org/1999/xlink" x="0px" y="0px"
	 viewBox="0 0 795 300" style="enable-background:new 0 0 795 300;" xml:space="preserve">
<style type="text/css">
	.st0{fill:#FF3F3F;}
</style>
<g>
	<g>
		<path class="st0" d="M392.7-235h6v35.9h17.5v5.1h-23.5V-235z"/>
		<path class="st0" d="M438.6-235.6c2.8,0,5.3,0.4,7.7,1.3c2.3,0.9,4.4,2.2,6.1,4c1.7,1.8,3,3.9,4,6.6c1,2.6,1.4,5.7,1.4,9.2
			c0,3.4-0.5,6.4-1.5,9.1c-1,2.6-2.4,4.8-4.1,6.6s-3.8,3.1-6.1,4c-2.4,0.9-4.9,1.4-7.7,1.4c-2.8,0-5.3-0.4-7.7-1.3
			c-2.3-0.9-4.4-2.2-6.1-4s-3-3.9-4-6.6c-1-2.6-1.4-5.7-1.4-9.2c0-3.4,0.5-6.4,1.5-9.1c1-2.6,2.4-4.8,4.1-6.6c1.7-1.8,3.8-3.1,6.1-4
			C433.3-235.1,435.9-235.6,438.6-235.6z M425.7-214.5c0,2.8,0.3,5.2,1,7.2s1.6,3.7,2.8,5.1c1.2,1.3,2.5,2.3,4.1,3s3.3,1,5,1
			c1.8,0,3.4-0.3,5-1c1.5-0.7,2.9-1.6,4-3c1.1-1.3,2-3,2.7-5.1c0.7-2,1-4.4,1-7.2c0-2.9-0.3-5.3-1-7.3s-1.6-3.7-2.8-5
			c-1.2-1.3-2.5-2.3-4.1-2.9s-3.3-0.9-5-0.9c-1.8,0-3.4,0.3-5,1c-1.6,0.6-2.9,1.6-4,3c-1.1,1.3-2,3-2.7,5.1
			C426-219.7,425.7-217.3,425.7-214.5z"/>
		<path class="st0" d="M492.1-235v3.6l-22.5,32.6h22.8v4.8h-29.8v-4.2l22.1-31.9h-21.1v-4.9H492.1z"/>
		<path class="st0" d="M510.8-235h5.3l16.3,40.9h-6.2l-4.5-11.4h-16.8l-4.4,11.4h-6.2L510.8-235z M506.5-210.2H520l-2.7-7.1
			c-0.7-1.9-1.4-3.7-2-5.4s-1.2-3.5-1.8-5.3h-0.1c-0.6,1.8-1.2,3.6-1.9,5.3s-1.3,3.5-2.1,5.5L506.5-210.2z"/>
		<path class="st0" d="M552.2-235h13.4c2.1,0,4,0.3,5.6,0.9c1.6,0.6,3,1.4,4.1,2.5c1.1,1.1,1.9,2.4,2.5,3.9s0.8,3.1,0.8,4.9
			c0,1.6-0.2,3-0.7,4.2c-0.5,1.3-1.1,2.4-1.9,3.3c-0.8,0.9-1.7,1.7-2.7,2.4c-1,0.7-2,1.2-3.1,1.7L581-194h-6.7l-9.7-16.1h-6.7v16.1
			h-5.7L552.2-235L552.2-235z M557.9-215h4.9c1.3,0,2.6-0.1,3.7-0.4c1.1-0.3,2.1-0.7,3-1.3c0.8-0.6,1.5-1.4,2-2.3
			c0.5-1,0.7-2.1,0.7-3.4c0-2.6-0.7-4.6-2.2-5.9c-1.4-1.3-3.6-1.9-6.3-1.9h-5.9L557.9-215L557.9-215z"/>
		<path class="st0" d="M598.7-235h5.3l16.3,40.9h-6.2l-4.5-11.4h-16.8l-4.4,11.4h-6.2L598.7-235z M594.4-210.2h13.5l-2.7-7.1
			c-0.7-1.9-1.4-3.7-2-5.4s-1.2-3.5-1.8-5.3h-0.1c-0.6,1.8-1.2,3.6-1.9,5.3s-1.3,3.5-2.1,5.5L594.4-210.2z"/>
		<path class="st0" d="M628-235h7.8l8.6,26.1c0.4,1.3,0.8,2.5,1.2,3.7c0.4,1.2,0.8,2.4,1.1,3.6h0.1c0.3-1.2,0.7-2.4,1.1-3.5
			c0.4-1.1,0.8-2.4,1.3-3.8l8.4-26.1h7.8l3.6,40.9h-6l-1.7-21.7c-0.2-2.1-0.3-4.2-0.4-6.3c-0.1-2.1-0.2-4.2-0.3-6.4h-0.1
			c-0.6,2.1-1.2,4.2-1.9,6.4c-0.6,2.1-1.3,4.2-2,6.4l-7.2,21.7h-5.5l-7.2-21.8c-0.7-2.2-1.4-4.3-2-6.3s-1.2-4.1-1.8-6.3h-0.1
			c-0.1,2.1-0.2,4.2-0.4,6.4c-0.1,2.1-0.3,4.2-0.5,6.4l-1.6,21.7h-5.7L628-235z"/>
		<path class="st0" d="M695.6-235.6c2.8,0,5.3,0.4,7.7,1.3c2.3,0.9,4.4,2.2,6.1,4c1.7,1.8,3,3.9,4,6.6c1,2.6,1.4,5.7,1.4,9.2
			c0,3.4-0.5,6.4-1.5,9.1c-1,2.6-2.4,4.8-4.1,6.6c-1.7,1.8-3.8,3.1-6.1,4c-2.4,0.9-4.9,1.4-7.7,1.4s-5.3-0.4-7.7-1.3
			c-2.3-0.9-4.4-2.2-6.1-4c-1.7-1.8-3-3.9-4-6.6c-1-2.6-1.4-5.7-1.4-9.2c0-3.4,0.5-6.4,1.5-9.1c1-2.6,2.4-4.8,4.1-6.6
			c1.7-1.8,3.8-3.1,6.1-4C690.3-235.1,692.9-235.6,695.6-235.6z M682.7-214.5c0,2.8,0.3,5.2,1,7.2s1.6,3.7,2.8,5.1
			c1.2,1.3,2.5,2.3,4.1,3s3.3,1,5,1c1.8,0,3.4-0.3,5-1c1.5-0.7,2.9-1.6,4-3c1.1-1.3,2-3,2.7-5.1c0.7-2.1,1-4.4,1-7.2
			c0-2.9-0.3-5.3-1-7.3s-1.6-3.7-2.8-5c-1.2-1.3-2.5-2.3-4.1-2.9s-3.3-0.9-5-0.9s-3.4,0.3-5,1c-1.6,0.6-2.9,1.6-4,3
			c-1.1,1.3-2,3-2.7,5.1C683-219.7,682.7-217.3,682.7-214.5z"/>
		<path class="st0" d="M734.6-235.6c2,0,3.9,0.2,5.8,0.5c1.9,0.3,3.7,0.9,5.5,1.8l-1.4,4.9c-1.9-0.9-3.5-1.5-5-1.9
			c-1.5-0.4-3-0.6-4.6-0.6c-2.5,0-4.4,0.5-5.9,1.6c-1.4,1.1-2.1,2.6-2.1,4.6c0,1.6,0.5,3,1.6,4s2.8,1.9,5.2,2.6l4.1,1.3
			c3.7,1.2,6.4,2.8,7.9,4.8s2.3,4.3,2.3,6.8c0,1.8-0.4,3.4-1.1,4.8c-0.7,1.5-1.7,2.7-3,3.7s-2.8,1.8-4.5,2.3s-3.6,0.8-5.7,0.8
			s-4.2-0.2-6.3-0.6c-2.1-0.4-4.3-1-6.4-2l1.4-4.9c1.9,0.9,3.7,1.6,5.5,2s3.6,0.7,5.6,0.7c2.3,0,4.3-0.5,6-1.6s2.5-2.7,2.5-4.8
			c0-0.8-0.1-1.5-0.4-2.2c-0.2-0.7-0.7-1.3-1.2-1.9c-0.6-0.6-1.4-1.2-2.4-1.7s-2.3-1-3.8-1.5l-4.1-1.3c-3-1-5.3-2.3-6.9-3.9
			c-1.6-1.6-2.4-3.9-2.4-6.7c0-3.6,1.2-6.4,3.5-8.5C726.6-234.5,730.1-235.6,734.6-235.6z"/>
	</g>
	<g>
		<path class="st0" d="M406.5-175.1h4.5l13.7,34.3h-5.2l-3.8-9.5h-14.1l-3.7,9.5h-5.2L406.5-175.1z M402.9-154.4h11.3l-2.3-5.9
			c-0.6-1.6-1.2-3.1-1.7-4.5s-1-2.9-1.5-4.5h-0.1c-0.5,1.5-1,3-1.6,4.4s-1.1,2.9-1.7,4.6L402.9-154.4z"/>
		<path class="st0" d="M429.1-175.1h11.1c1.8,0,3.3,0.3,4.7,0.8c1.4,0.5,2.5,1.2,3.4,2.1c0.9,0.9,1.6,2,2.1,3.2
			c0.5,1.3,0.7,2.6,0.7,4.1c0,1.3-0.2,2.5-0.6,3.5c-0.4,1.1-0.9,2-1.6,2.7c-0.7,0.8-1.4,1.5-2.3,2c-0.8,0.6-1.7,1-2.6,1.4l9,14.4
			h-5.6l-8.1-13.4h-5.6v13.4H429v-34.2H429.1z M433.8-158.4h4.1c1.1,0,2.2-0.1,3.1-0.4c1-0.2,1.8-0.6,2.5-1.1s1.3-1.1,1.7-1.9
			c0.4-0.8,0.6-1.8,0.6-2.9c0-2.2-0.6-3.8-1.8-4.9c-1.2-1-3-1.6-5.3-1.6h-4.9L433.8-158.4L433.8-158.4z"/>
		<path class="st0" d="M472.7-175.6c2.3,0,4.5,0.4,6.4,1.1c2,0.7,3.7,1.9,5.1,3.3c1.4,1.5,2.5,3.3,3.3,5.5s1.2,4.8,1.2,7.7
			c0,3.8-0.8,7.1-2.3,9.7c-1.6,2.7-4.1,5-7.6,7l-7.4,4.1c1.1,0,2.1,0.1,3,0.4c0.9,0.3,1.9,0.6,2.8,0.9c0.9,0.3,1.9,0.6,2.9,0.9
			c1,0.3,2.1,0.4,3.4,0.4c0.7,0,1.5-0.1,2.3-0.3s1.6-0.6,2.3-1.1l2,3.6c-1,0.7-2.1,1.1-3.3,1.5c-1.2,0.3-2.3,0.5-3.4,0.5
			c-1.3,0-2.5-0.2-3.8-0.5s-2.5-0.7-3.7-1.1c-1.2-0.4-2.4-0.8-3.6-1.1s-2.4-0.5-3.6-0.5c-0.9,0-1.9,0.1-2.8,0.4
			c-0.9,0.3-1.9,0.7-2.8,1.3l-2.1-3.8l8.4-4.8c-1.9-0.3-3.7-0.9-5.2-1.8c-1.6-0.9-2.9-2-4.1-3.5c-1.1-1.4-2-3.2-2.7-5.2
			c-0.6-2-1-4.3-1-6.9c0-2.9,0.4-5.4,1.3-7.6c0.8-2.2,2-4,3.4-5.5c1.5-1.5,3.2-2.6,5.1-3.4C468.3-175.2,470.4-175.6,472.7-175.6z
			 M461.9-158c0,2.3,0.3,4.3,0.8,6.1c0.5,1.7,1.2,3.2,2.1,4.3c0.9,1.2,2,2,3.3,2.6s2.6,0.9,4.1,0.9s2.9-0.3,4.2-0.9
			c1.3-0.6,2.5-1.5,3.5-2.7s1.8-2.6,2.4-4.4c0.6-1.7,0.9-3.7,0.9-6c0-2.4-0.3-4.4-0.8-6.1c-0.6-1.7-1.3-3.1-2.3-4.2
			c-1-1.1-2.1-1.9-3.5-2.4c-1.3-0.5-2.7-0.8-4.2-0.8s-2.9,0.3-4.2,0.8c-1.3,0.5-2.4,1.4-3.4,2.5c-0.9,1.1-1.7,2.5-2.2,4.2
			C462.2-162.3,461.9-160.3,461.9-158z"/>
		<path class="st0" d="M495-175.1h5v20.5c0,3.7,0.7,6.3,2,7.8c1.3,1.6,3.5,2.3,6.5,2.3c2.9,0,5.1-0.9,6.4-2.6s2-4,2-6.9v-21.2h5v21
			c0,4.7-1.2,8.1-3.6,10.4c-2.4,2.2-5.7,3.4-9.9,3.4s-7.6-1.1-9.9-3.3c-2.4-2.2-3.6-5.8-3.6-10.7L495-175.1L495-175.1z"/>
		<path class="st0" d="M535.3-175.1v34.3h-5v-34.3H535.3z"/>
		<path class="st0" d="M566.5-175.1v4.2h-10.7v30h-5v-30h-10.5v-4.2H566.5z"/>
		<path class="st0" d="M571.4-175.1h20.7v4.1h-15.7v10.3h14.2v4.1h-14.2v11.6h15.8v4.1h-20.8V-175.1z"/>
		<path class="st0" d="M613.3-144.5c1.8,0,3.3-0.1,4.5-0.4c1.2-0.3,2.3-0.7,3.5-1.2l1.1,4c-1.3,0.6-2.7,1.1-4.2,1.4
			c-1.5,0.3-3.3,0.4-5.5,0.4s-4.4-0.4-6.4-1.1c-2-0.8-3.7-1.9-5.2-3.4s-2.6-3.3-3.5-5.5s-1.3-4.7-1.3-7.6c0-2.8,0.4-5.3,1.3-7.5
			c0.8-2.2,2-4,3.5-5.6s3.2-2.6,5.2-3.4c2-0.8,4.2-1.2,6.6-1.2c2.2,0,4.1,0.2,5.5,0.5c1.5,0.4,2.8,0.8,4,1.5l-1.2,3.9
			c-0.7-0.3-1.3-0.5-1.9-0.8c-0.6-0.2-1.2-0.4-1.8-0.6c-0.6-0.1-1.2-0.3-1.8-0.3c-0.6-0.1-1.4-0.1-2.2-0.1c-1.6,0-3.1,0.2-4.5,0.7
			s-2.7,1.3-3.8,2.4c-1.1,1.1-1.9,2.5-2.6,4.2c-0.6,1.7-1,3.8-1,6.2c0,2.5,0.3,4.6,0.9,6.3c0.6,1.7,1.4,3.1,2.5,4.1
			c1,1,2.2,1.8,3.6,2.3C610.3-144.8,611.8-144.5,613.3-144.5z"/>
		<path class="st0" d="M651.2-175.1v4.2h-10.7v30h-5v-30H625v-4.2H651.2z"/>
		<path class="st0" d="M655.7-175.1h5v20.5c0,3.7,0.7,6.3,2,7.8c1.3,1.6,3.5,2.3,6.5,2.3c2.9,0,5.1-0.9,6.4-2.6s2-4,2-6.9v-21.2h5
			v21c0,4.7-1.2,8.1-3.6,10.4c-2.4,2.2-5.7,3.4-9.9,3.4s-7.6-1.1-9.9-3.3c-2.4-2.2-3.6-5.8-3.6-10.7L655.7-175.1L655.7-175.1z"/>
		<path class="st0" d="M691-175.1h11.1c1.8,0,3.3,0.3,4.7,0.8s2.5,1.2,3.4,2.1c0.9,0.9,1.6,2,2.1,3.2c0.5,1.3,0.7,2.6,0.7,4.1
			c0,1.3-0.2,2.5-0.6,3.5c-0.4,1.1-0.9,2-1.6,2.7c-0.7,0.8-1.4,1.5-2.3,2c-0.8,0.6-1.7,1-2.6,1.4l9,14.4h-5.6l-8.1-13.4h-5.6v13.4
			h-4.7L691-175.1L691-175.1z M695.7-158.4h4.1c1.1,0,2.2-0.1,3.1-0.4c1-0.2,1.8-0.6,2.5-1.1s1.3-1.1,1.7-1.9
			c0.4-0.8,0.6-1.8,0.6-2.9c0-2.2-0.6-3.8-1.8-4.9c-1.2-1-3-1.6-5.3-1.6h-4.9L695.7-158.4L695.7-158.4z"/>
		<path class="st0" d="M729.8-175.1h4.5l13.7,34.3h-5.2l-3.8-9.5h-14.1l-3.7,9.5H716L729.8-175.1z M726.2-154.4h11.3l-2.3-5.9
			c-0.6-1.6-1.2-3.1-1.7-4.5s-1-2.9-1.5-4.5h-0.1c-0.5,1.5-1,3-1.6,4.4s-1.1,2.9-1.7,4.6L726.2-154.4z"/>
	</g>
</g>
<path class="st0" d="M152.3-319.4L15-262.3v158.2l137.3,57.6l15.3-6.4l0,0v-5.5v-58.3l41.7-17.4v63.7l41,16.3v-33.5V-118l3.6-1.4
	V-89l35.8-15v-158.3L152.3-319.4z M240.9-85.1c-1.2,0-2.1-1.4-2.1-3s0.9-3,2.1-3s2.1,1.4,2.1,3C243-86.4,242.1-85.1,240.9-85.1z"/>
<g>
	<g>
		<path class="st0" d="M683.7,237c0-1.1,0-2,0-2.9c0-50.6,0-101.3,0-151.9c0-1.5,0-3.1,0.2-4.6c1.4-9.8,6.9-14.5,17.9-14.6
			c18.7-0.2,37.4,0,56.1-0.1c1.6,0,2.3,0.5,2.1,2.1c-0.1,0.5,0,0.9,0,1.4c0,55.8,0,111.6,0,167.3c0,3.3,0,3.3-3.4,3.3
			c-7.3,0-14.6,0-21.8,0c-0.8,0-1.7,0-2.7,0c-0.1-1.2-0.2-2.1-0.2-3.1c0-19.4,0-38.8,0-58.2c0-3,0-3-3-3c-5.5,0-11,0-16.7,0
			c-0.1,1.2-0.2,2.1-0.2,3.1c0,19.5,0,38.9,0,58.4c0,2.2-0.6,2.9-2.8,2.8c-7.6-0.1-15.2,0-22.8-0.1C685.6,237.1,684.7,237,683.7,237
			z M711.9,118c0,9.1,0,18.2,0,27.3c0,1.7,0.6,2.3,2.2,2.2c5.2-0.1,10.4-0.1,15.6,0c1.6,0,2.2-0.5,2.2-2.1c0-18.3,0-36.6,0-54.9
			c0-1.7-0.6-2.3-2.3-2.2c-5.1,0.1-10.3,0.1-15.4,0c-1.8,0-2.3,0.6-2.3,2.4C712,99.7,711.9,108.9,711.9,118z"/>
		<path class="st0" d="M550,237.1c0-58.2,0-115.9,0-173.9c0.9-0.1,1.8-0.2,2.7-0.2c18.2,0,36.3,0,54.5,0c0.6,0,1.2,0,1.8,0
			c11.8,0.9,17,6.2,17.1,18c0.1,21.6,0,43.2,0,64.8c0,6.7-2.8,11.5-9.3,13.7c-0.3,0.1-0.6,0.4-1.3,0.8c0.8,0.4,1.3,0.7,1.8,0.8
			c5.7,1.6,8.6,4.9,8.8,10.9c0.2,5.2,0.1,10.4,0.1,15.6c0,15.6,0,31.3,0,46.9c0,2-0.5,2.7-2.5,2.6c-7.7-0.1-15.5-0.1-23.2,0
			c-2.1,0-2.5-0.7-2.5-2.7c0.1-19.3,0-38.6,0-57.9c0-4.2,0.4-3.7-3.6-3.7c-4.1,0-8.3,0-12.4,0c-4,0-3.6-0.4-3.6,3.5c0,19,0,38,0,57
			c0,4.2,0.4,3.7-3.9,3.7c-7.2,0-14.4,0-21.6,0C551.9,237.1,551,237.1,550,237.1z M597.8,118.1c0-9.2,0-18.4,0-27.6
			c0-1.7-0.5-2.3-2.2-2.3c-5.1,0.1-10.1,0.1-15.2,0c-1.8,0-2.4,0.6-2.4,2.4c0.1,18.2,0.1,36.4,0,54.7c0,1.7,0.5,2.3,2.2,2.3
			c5.1-0.1,10.1-0.1,15.2,0c1.7,0,2.4-0.5,2.4-2.4C597.8,136.2,597.8,127.1,597.8,118.1z"/>
		<path class="st0" d="M433.9,237.1c0-1.1,0-2.2,0-3.1c0-56,0-112,0-168c0-3.1,0-3.1,3.1-3.1c7.4,0,14.7,0.1,22.1-0.1
			c2.4,0,2.9,0.7,2.9,3c-0.1,47.3,0,94.5,0,141.8c0,4.7-0.3,4.1,4,4.1c8.8,0,17.6,0.1,26.4,0c2,0,2.6,0.6,2.6,2.6
			c-0.1,6.8-0.1,13.6,0,20.5c0,1.8-0.5,2.4-2.3,2.4L433.9,237.1z"/>
	</g>
	<path class="st0" d="M185.9,0L35,62.8v173.9L185.9,300l16.8-7l0,0v-6v-64.1l45.8-19.1v70l45,17.9v-36.8v-33.3l4-1.5v33.2l39.3-16.5
		V62.8L185.9,0z M283.2,257.5c-1.3,0-2.3-1.5-2.3-3.3c0-1.8,1-3.3,2.3-3.3c1.3,0,2.3,1.5,2.3,3.3C285.5,256,284.4,257.5,283.2,257.5
		z"/>
</g>
</svg>
