<?xml version="1.0" encoding="utf-8"?>
<!-- Generator: Adobe Illustrator 24.1.0, SVG Export Plug-In . SVG Version: 6.00 Build 0)  -->
<svg version="1.1" id="Layer_1" xmlns="http://www.w3.org/2000/svg" xmlns:xlink="http://www.w3.org/1999/xlink" x="0px" y="0px"
	 viewBox="0 0 795 300" style="enable-background:new 0 0 795 300;" xml:space="preserve">
<style type="text/css">
	.st0{fill:#FF3F3F;}
</style>
<path class="st0" d="M135.3-338.2L-2-281.1v158.2l137.3,57.6l15.3-6.4l0,0v-5.5v-58.3l41.7-17.4v63.7l41,16.3v-33.5v-30.4l3.6-1.4
	v30.4l35.8-15v-158.3L135.3-338.2z M223.9-103.9c-1.2,0-2.1-1.4-2.1-3s0.9-3,2.1-3s2.1,1.4,2.1,3C226-105.2,225.1-103.9,223.9-103.9
	z"/>
<g>
	<g>
		<path class="st0" d="M1167-166.7c0-0.7,0-1.3,0-1.9c0-32.8,0-65.7,0-98.5c0-1,0-2,0.1-3c0.9-6.4,4.5-9.4,11.6-9.5
			c12.1-0.1,24.2,0,36.4-0.1c1,0,1.5,0.3,1.4,1.4c-0.1,0.3,0,0.6,0,0.9c0,36.2,0,72.4,0,108.5c0,2.1,0,2.1-2.2,2.1
			c-4.7,0-9.5,0-14.1,0c-0.5,0-1.1,0-1.8,0c-0.1-0.8-0.1-1.4-0.1-2c0-12.6,0-25.2,0-37.7c0-1.9,0-1.9-1.9-1.9c-3.6,0-7.1,0-10.8,0
			c-0.1,0.8-0.1,1.4-0.1,2c0,12.6,0,25.2,0,37.9c0,1.4-0.4,1.9-1.8,1.8c-4.9-0.1-9.9,0-14.8-0.1
			C1168.3-166.6,1167.7-166.7,1167-166.7z M1185.3-243.8c0,5.9,0,11.8,0,17.7c0,1.1,0.4,1.5,1.4,1.4c3.4-0.1,6.7-0.1,10.1,0
			c1,0,1.4-0.3,1.4-1.4c0-11.9,0-23.7,0-35.6c0-1.1-0.4-1.5-1.5-1.4c-3.3,0.1-6.7,0.1-10,0c-1.2,0-1.5,0.4-1.5,1.6
			C1185.4-255.7,1185.3-249.7,1185.3-243.8z"/>
		<path class="st0" d="M1080.4-166.6c0-37.7,0-75.1,0-112.7c0.6-0.1,1.2-0.1,1.8-0.1c11.8,0,23.5,0,35.3,0c0.4,0,0.8,0,1.2,0
			c7.7,0.6,11,4,11.1,11.7c0.1,14,0,28,0,42c0,4.3-1.8,7.5-6,8.9c-0.2,0.1-0.4,0.3-0.8,0.5c0.5,0.3,0.8,0.5,1.2,0.5
			c3.7,1,5.6,3.2,5.7,7.1c0.1,3.4,0.1,6.7,0.1,10.1c0,10.1,0,20.3,0,30.4c0,1.3-0.3,1.8-1.6,1.7c-5-0.1-10-0.1-15,0
			c-1.4,0-1.6-0.5-1.6-1.8c0.1-12.5,0-25,0-37.5c0-2.7,0.3-2.4-2.3-2.4c-2.7,0-5.4,0-8,0s-2.3-0.3-2.3,2.3c0,12.3,0,24.6,0,37
			c0,2.7,0.3,2.4-2.5,2.4c-4.7,0-9.3,0-14,0C1081.6-166.6,1081-166.6,1080.4-166.6z M1111.4-243.8c0-6,0-11.9,0-17.9
			c0-1.1-0.3-1.5-1.4-1.5c-3.3,0.1-6.5,0.1-9.9,0c-1.2,0-1.6,0.4-1.6,1.6c0.1,11.8,0.1,23.6,0,35.5c0,1.1,0.3,1.5,1.4,1.5
			c3.3-0.1,6.5-0.1,9.9,0c1.1,0,1.6-0.3,1.6-1.6C1111.4-232,1111.4-237.9,1111.4-243.8z"/>
		<path class="st0" d="M1005.1-166.6c0-0.7,0-1.4,0-2c0-36.3,0-72.6,0-108.9c0-2,0-2,2-2c4.8,0,9.5,0.1,14.3-0.1
			c1.6,0,1.9,0.5,1.9,1.9c-0.1,30.7,0,61.3,0,91.9c0,3-0.2,2.7,2.6,2.7c5.7,0,11.4,0.1,17.1,0c1.3,0,1.7,0.4,1.7,1.7
			c-0.1,4.4-0.1,8.8,0,13.3c0,1.2-0.3,1.6-1.5,1.6L1005.1-166.6z"/>
	</g>
	<path class="st0" d="M844.3-320.4l-97.8,40.7V-167l97.8,41l10.9-4.5l0,0v-3.9V-176l29.7-12.4v45.4l29.2,11.6v-23.7v-21.6l2.6-1
		v21.6l25.5-10.7v-112.8L844.3-320.4z M907.4-153.4c-0.8,0-1.5-1-1.5-2.1s0.6-2.1,1.5-2.1s1.5,1,1.5,2.1S908.2-153.4,907.4-153.4z"
		/>
</g>
<g>
	<path class="st0" d="M339.2-197.8h7.4l13.1,33.1h-8l-2.4-6.6h-12.7l-2.4,6.6h-8L339.2-197.8z M339-177.9h7.7l-3.8-10.8h-0.1
		L339-177.9z"/>
	<path class="st0" d="M362.1-197.8h13.5c1.9,0,3.6,0.4,5.1,1.2s2.7,2,3.6,3.5s1.3,3.3,1.3,5.4c0,2.1-0.4,3.8-1.1,5.1s-1.6,2.3-2.7,3
		c-1,0.7-2,1.1-2.9,1.2l8,13.7h-8.4l-7.2-13.1h-1.8v13.1H362v-33.1L362.1-197.8L362.1-197.8z M369.6-183h3.3c1.3,0,2.5-0.3,3.5-1
		s1.5-1.8,1.5-3.5s-0.5-2.8-1.5-3.4c-1-0.6-2.1-1-3.5-1h-3.4v8.9H369.6z"/>
	<path class="st0" d="M389.1-181.3c0-2.4,0.4-4.6,1.3-6.7c0.9-2.1,2-3.9,3.6-5.4c1.5-1.6,3.3-2.8,5.4-3.6s4.3-1.3,6.7-1.3
		c2.4,0,4.7,0.4,6.7,1.3c2.1,0.9,3.9,2.1,5.4,3.6c1.5,1.6,2.7,3.4,3.6,5.4c0.8,2.1,1.3,4.3,1.3,6.7s-0.4,4.7-1.2,6.8
		c-0.8,2.1-2,3.9-3.5,5.5s-3.3,2.8-5.4,3.6c-2.1,0.9-4.4,1.3-6.8,1.3c-2.5,0-4.8-0.4-6.9-1.3c-2.1-0.9-3.9-2.1-5.4-3.6
		c-1.5-1.6-2.7-3.4-3.5-5.5C389.5-176.6,389.1-178.9,389.1-181.3z M415-163.7c1,0,1.8-0.1,2.6-0.3c0.8-0.2,1.4-0.5,1.8-0.7
		c0.5-0.3,0.7-0.4,0.8-0.5l2.5,4.9c-0.5,0.8-1.4,1.6-2.7,2.4c-1.3,0.8-3,1.1-5,1.1c-1.2,0-2.3-0.1-3.1-0.4c-0.9-0.3-1.7-0.6-2.4-1
		c-0.7-0.4-1.5-0.7-2.4-1s-1.9-0.4-3.2-0.4c-1,0-1.9,0.2-2.7,0.5c-0.8,0.3-1.4,0.6-1.8,0.9c-0.4,0.3-0.7,0.5-0.7,0.6l-3.1-3.6
		c1-1.2,2.4-2.2,4.1-2.9c1.7-0.8,3.6-1.1,5.8-1.1c1.4,0,2.6,0.1,3.6,0.4c1,0.3,2,0.6,2.9,0.8C412.9-163.8,413.9-163.7,415-163.7z
		 M396.9-181.3c0,1.9,0.4,3.6,1.2,5.1c0.8,1.5,1.9,2.7,3.2,3.6c1.4,0.9,3,1.4,4.8,1.4s3.4-0.5,4.8-1.4s2.5-2.1,3.2-3.6
		c0.8-1.5,1.2-3.2,1.2-5.1s-0.4-3.6-1.2-5.1c-0.8-1.5-1.9-2.7-3.2-3.6c-1.4-0.9-3-1.4-4.8-1.4s-3.4,0.5-4.8,1.4s-2.5,2.1-3.2,3.6
		C397.3-184.9,396.9-183.2,396.9-181.3z"/>
	<path class="st0" d="M445.9-197.8h7.5v20.3c0,2.7-0.5,5.1-1.6,7.1s-2.6,3.5-4.6,4.6s-4.4,1.6-7.1,1.6c-2.8,0-5.2-0.5-7.2-1.6
		s-3.5-2.6-4.6-4.6s-1.6-4.4-1.6-7.1v-20.3h7.5v19.9c0,1.5,0.2,2.8,0.7,3.8s1.2,1.8,2,2.3c0.9,0.5,1.9,0.8,3.1,0.8s2.2-0.3,3.1-0.8
		s1.5-1.3,2-2.3s0.7-2.3,0.7-3.8v-19.9H445.9z"/>
	<path class="st0" d="M458.9-197.8h7.5v33.1h-7.5V-197.8z"/>
	<path class="st0" d="M478-191.2h-7.9v-6.6h23.3v6.6h-7.9v26.5H478V-191.2z"/>
	<path class="st0" d="M497.3-197.8h21.1v6.6h-13.7v6.7h13.5v6.4h-13.5v6.8h13.7v6.6h-21.1L497.3-197.8L497.3-197.8z"/>
	<path class="st0" d="M541.6-171.5c1.5,0,2.9-0.2,4.2-0.7s2.2-0.9,2.8-1.3l3.2,6.4c-0.8,0.7-2.1,1.3-4,2s-4.1,1-6.8,1
		c-2.4,0-4.7-0.4-6.9-1.3c-2.1-0.9-4-2.1-5.6-3.6s-2.9-3.4-3.8-5.4c-0.9-2.1-1.4-4.3-1.4-6.8s0.5-4.7,1.4-6.8s2.2-3.9,3.8-5.5
		s3.5-2.8,5.7-3.6c2.1-0.9,4.4-1.3,6.9-1.3c2.6,0,4.9,0.3,6.8,1c1.9,0.7,3.2,1.4,4,2l-3.2,6.4c-0.6-0.5-1.6-0.9-2.8-1.3
		c-1.3-0.4-2.7-0.7-4.2-0.7c-1.7,0-3.2,0.3-4.5,0.8s-2.3,1.2-3.2,2.2c-0.9,0.9-1.5,2-1.9,3.1c-0.4,1.2-0.6,2.4-0.6,3.6
		c0,1.3,0.2,2.5,0.6,3.7c0.4,1.2,1.1,2.2,1.9,3.1c0.9,0.9,1.9,1.6,3.2,2.2C538.4-171.8,539.9-171.5,541.6-171.5z"/>
	<path class="st0" d="M562.6-191.2h-7.9v-6.6h23.2v6.6H570v26.5h-7.5L562.6-191.2L562.6-191.2z"/>
	<path class="st0" d="M601.1-197.8h7.5v20.3c0,2.7-0.5,5.1-1.6,7.1s-2.6,3.5-4.6,4.6s-4.4,1.6-7.1,1.6c-2.8,0-5.2-0.5-7.2-1.6
		s-3.5-2.6-4.6-4.6s-1.6-4.4-1.6-7.1v-20.3h7.5v19.9c0,1.5,0.2,2.8,0.7,3.8s1.2,1.8,2,2.3c0.9,0.5,1.9,0.8,3.1,0.8
		c1.2,0,2.2-0.3,3.1-0.8c0.9-0.5,1.5-1.3,2-2.3s0.7-2.3,0.7-3.8L601.1-197.8L601.1-197.8z"/>
	<path class="st0" d="M613.7-197.8h13.5c1.9,0,3.6,0.4,5.1,1.2s2.7,2,3.6,3.5c0.9,1.5,1.3,3.3,1.3,5.4c0,2.1-0.4,3.8-1.1,5.1
		c-0.7,1.3-1.6,2.3-2.7,3c-1,0.7-2,1.1-2.9,1.2l8,13.7h-8.4l-7.2-13.1h-1.8v13.1h-7.5v-33.1L613.7-197.8L613.7-197.8z M621.2-183
		h3.3c1.3,0,2.5-0.3,3.5-1s1.5-1.8,1.5-3.5s-0.5-2.8-1.5-3.4c-1-0.6-2.1-1-3.5-1h-3.4v8.9H621.2z"/>
	<path class="st0" d="M651.8-197.8h7.4l13.1,33.1h-8l-2.4-6.6h-12.7l-2.4,6.6h-8L651.8-197.8z M651.7-177.9h7.7l-3.8-10.8h-0.1
		L651.7-177.9z"/>
</g>
<g>
	<path class="st0" d="M326.1-245.9h8.6v30.3h13.7v7.5h-22.3L326.1-245.9L326.1-245.9z"/>
	<path class="st0" d="M351.8-227c0-2.8,0.5-5.3,1.5-7.7s2.3-4.5,4.1-6.2c1.8-1.8,3.8-3.2,6.2-4.2s4.9-1.5,7.7-1.5
		c2.8,0,5.4,0.5,7.7,1.5s4.4,2.4,6.2,4.2c1.8,1.8,3.1,3.9,4.1,6.2c1,2.4,1.4,4.9,1.4,7.7s-0.5,5.4-1.4,7.7c-0.9,2.4-2.3,4.5-4,6.3
		s-3.8,3.2-6.2,4.2s-5,1.5-7.8,1.5c-2.9,0-5.6-0.5-7.9-1.5c-2.4-1-4.4-2.4-6.2-4.2c-1.7-1.8-3-3.9-4-6.3
		C352.3-221.7,351.8-224.3,351.8-227z M360.8-227c0,2.2,0.4,4.1,1.3,5.9c0.9,1.8,2.1,3.1,3.7,4.2c1.6,1,3.4,1.6,5.5,1.6
		s3.9-0.5,5.5-1.6c1.6-1,2.8-2.4,3.7-4.2c0.9-1.8,1.3-3.7,1.3-5.9s-0.4-4.1-1.3-5.9c-0.9-1.7-2.1-3.1-3.7-4.2
		c-1.6-1-3.4-1.6-5.5-1.6s-3.9,0.5-5.5,1.6c-1.6,1-2.8,2.4-3.7,4.2C361.2-231.1,360.8-229.2,360.8-227z"/>
	<path class="st0" d="M396.2-245.9h31.1l-18.8,30.3h17.6v7.5h-32.5l18.8-30.3h-16.1v-7.5H396.2z"/>
	<path class="st0" d="M444-245.9h8.5l14.9,37.9h-9.2l-2.7-7.6H441l-2.8,7.6H429L444-245.9z M443.9-223.2h8.9l-4.4-12.4h-0.1
		L443.9-223.2z"/>
	<path class="st0" d="M485.5-245.9H501c2.2,0,4.2,0.5,5.9,1.4c1.7,0.9,3.1,2.2,4.1,4s1.5,3.8,1.5,6.2s-0.4,4.3-1.3,5.9
		c-0.9,1.5-1.9,2.7-3.1,3.4c-1.2,0.8-2.3,1.2-3.3,1.4l9.2,15.7h-9.6l-8.2-15h-2.1v15h-8.6L485.5-245.9L485.5-245.9z M494.1-229h3.8
		c1.5,0,2.9-0.4,4-1.1c1.1-0.7,1.7-2.1,1.7-4s-0.6-3.2-1.7-3.9s-2.5-1.1-4-1.1h-3.8V-229z"/>
	<path class="st0" d="M529.2-245.9h8.5l14.9,37.9h-9.2l-2.7-7.6h-14.6l-2.8,7.6h-9.2L529.2-245.9z M529-223.2h8.9l-4.4-12.4h-0.1
		L529-223.2z"/>
	<path class="st0" d="M596-245.9v37.9h-8.5v-22.3l0.4-6.3l-1.5,7.3L580-211h-8.4l-6.3-18.3l-1.4-7.3l0.4,6.3v22.3h-8.6v-37.9h12
		l7.6,25.3l0.5,3l0.5-3l7.6-25.3H596z"/>
	<path class="st0" d="M601.6-227c0-2.8,0.5-5.3,1.5-7.7s2.3-4.5,4.1-6.2c1.8-1.8,3.8-3.2,6.2-4.2s4.9-1.5,7.7-1.5s5.4,0.5,7.7,1.5
		s4.4,2.4,6.2,4.2s3.1,3.9,4.1,6.2c1,2.4,1.4,4.9,1.4,7.7s-0.5,5.4-1.4,7.7c-0.9,2.4-2.3,4.5-4,6.3s-3.8,3.2-6.2,4.2s-5,1.5-7.8,1.5
		c-2.9,0-5.6-0.5-7.9-1.5s-4.4-2.4-6.2-4.2c-1.7-1.8-3-3.9-4-6.3C602.1-221.7,601.6-224.3,601.6-227z M610.5-227
		c0,2.2,0.4,4.1,1.3,5.9c0.9,1.8,2.1,3.1,3.7,4.2c1.6,1,3.4,1.6,5.5,1.6s3.9-0.5,5.5-1.6c1.6-1,2.8-2.4,3.7-4.2s1.3-3.7,1.3-5.9
		s-0.4-4.1-1.3-5.9c-0.9-1.7-2.1-3.1-3.7-4.2c-1.6-1-3.4-1.6-5.5-1.6s-3.9,0.5-5.5,1.6c-1.6,1-2.8,2.4-3.7,4.2
		C611-231.1,610.5-229.2,610.5-227z"/>
	<path class="st0" d="M659.2-246.6c2.4,0,4.4,0.3,6.2,0.8s3.2,1.1,4.2,1.6c1.1,0.6,1.7,1,2,1.1l-4.1,6.9c-0.3-0.2-0.8-0.6-1.6-1
		c-0.7-0.4-1.6-0.8-2.6-1.2c-1-0.3-2.1-0.5-3.1-0.5c-1.5,0-2.7,0.3-3.6,0.8c-0.9,0.5-1.4,1.3-1.4,2.3c0,0.7,0.2,1.3,0.7,1.9
		c0.5,0.6,1.2,1.1,2.2,1.6s2.3,1.1,3.8,1.6c1.4,0.5,2.7,1.1,4,1.8c1.2,0.7,2.3,1.5,3.3,2.5c0.9,1,1.7,2.1,2.3,3.3
		c0.6,1.3,0.8,2.7,0.8,4.3c0,1.9-0.4,3.6-1.2,5s-1.8,2.6-3.2,3.5c-1.3,0.9-2.9,1.6-4.6,2c-1.7,0.4-3.5,0.7-5.3,0.7
		c-2.6,0-4.9-0.3-7-0.9c-2.1-0.6-3.7-1.2-5-1.9s-2-1.1-2.3-1.4l4.3-7.2c0.2,0.2,0.7,0.5,1.3,0.8c0.7,0.4,1.5,0.8,2.4,1.2
		c1,0.4,2,0.8,3.1,1.1s2.1,0.4,3.2,0.4c1.8,0,3.1-0.3,4-1s1.3-1.6,1.3-2.7c0-0.8-0.3-1.6-0.8-2.2c-0.6-0.6-1.4-1.3-2.5-1.8
		c-1.1-0.6-2.5-1.2-4.2-1.8c-1.7-0.7-3.2-1.5-4.7-2.4c-1.4-1-2.6-2.1-3.5-3.6c-0.9-1.4-1.3-3.2-1.3-5.3s0.6-4,1.8-5.5
		s2.8-2.8,4.7-3.6C654.8-246.2,656.9-246.6,659.2-246.6z"/>
</g>
<g>
	<g>
		<path class="st0" d="M212.6,154.5h8.5l15.1,38.2h-9.2l-2.8-7.6h-14.7l-2.8,7.6h-9.2L212.6,154.5z M212.4,177.5h8.9l-4.4-12.5h-0.1
			L212.4,177.5z"/>
		<path class="st0" d="M239.1,154.5h15.6c2.2,0,4.2,0.5,5.9,1.4c1.7,0.9,3.1,2.3,4.2,4c1,1.7,1.5,3.8,1.5,6.2s-0.5,4.4-1.3,5.9
			c-0.8,1.5-1.8,2.7-3.1,3.5c-1.2,0.8-2.3,1.3-3.4,1.4l9.2,15.8H258l-8.3-15.1h-2.1v15.1H239v-38.2H239.1z M247.8,171.6h3.8
			c1.5,0,2.9-0.3,4-1.2c1.2-0.8,1.7-2.1,1.7-4c0-2-0.6-3.2-1.7-3.9c-1.2-0.7-2.4-1.2-4-1.2h-3.9v10.3H247.8z"/>
		<path class="st0" d="M270.3,173.6c0-2.8,0.5-5.3,1.5-7.7c1-2.4,2.3-4.5,4.2-6.2c1.7-1.8,3.8-3.2,6.2-4.2c2.4-0.9,5-1.5,7.7-1.5
			c2.8,0,5.4,0.5,7.7,1.5c2.4,1,4.5,2.4,6.2,4.2c1.7,1.8,3.1,3.9,4.2,6.2c0.9,2.4,1.5,5,1.5,7.7c0,2.8-0.5,5.4-1.4,7.9
			c-0.9,2.4-2.3,4.5-4,6.4c-1.7,1.8-3.8,3.2-6.2,4.2c-2.4,1-5.1,1.5-7.9,1.5c-2.9,0-5.5-0.5-8-1.5s-4.5-2.4-6.2-4.2
			c-1.7-1.8-3.1-3.9-4-6.4C270.8,179,270.3,176.3,270.3,173.6z M300.2,193.9c1.2,0,2.1-0.1,3-0.3c0.9-0.2,1.6-0.6,2.1-0.8
			c0.6-0.3,0.8-0.5,0.9-0.6l2.9,5.7c-0.6,0.9-1.6,1.8-3.1,2.8c-1.5,0.9-3.5,1.3-5.8,1.3c-1.4,0-2.7-0.1-3.6-0.5
			c-1-0.3-2-0.7-2.8-1.2c-0.8-0.5-1.7-0.8-2.8-1.2s-2.2-0.5-3.7-0.5c-1.2,0-2.2,0.2-3.1,0.6c-0.9,0.3-1.6,0.7-2.1,1
			c-0.5,0.3-0.8,0.6-0.8,0.7l-3.6-4.2c1.2-1.4,2.8-2.5,4.7-3.4c2-0.9,4.2-1.3,6.7-1.3c1.6,0,3,0.1,4.2,0.5c1.2,0.3,2.3,0.7,3.4,0.9
			C297.7,193.8,298.8,193.9,300.2,193.9z M279.2,173.6c0,2.2,0.5,4.2,1.4,5.9c0.9,1.7,2.2,3.1,3.7,4.2c1.6,1,3.5,1.6,5.5,1.6
			s3.9-0.6,5.5-1.6c1.6-1,2.9-2.4,3.7-4.2c0.9-1.7,1.4-3.7,1.4-5.9c0-2.2-0.5-4.2-1.4-5.9c-0.9-1.7-2.2-3.1-3.7-4.2
			c-1.6-1-3.5-1.6-5.5-1.6s-3.9,0.6-5.5,1.6s-2.9,2.4-3.7,4.2C279.6,169.4,279.2,171.4,279.2,173.6z"/>
		<path class="st0" d="M335.8,154.5h8.7V178c0,3.1-0.6,5.9-1.8,8.2c-1.3,2.3-3,4-5.3,5.3c-2.3,1.3-5.1,1.8-8.2,1.8
			c-3.2,0-6-0.6-8.3-1.8s-4-3-5.3-5.3s-1.8-5.1-1.8-8.2v-23.5h8.7v23c0,1.7,0.2,3.2,0.8,4.4c0.6,1.2,1.4,2.1,2.3,2.7
			c1,0.6,2.2,0.9,3.6,0.9c1.4,0,2.5-0.3,3.6-0.9s1.7-1.5,2.3-2.7c0.6-1.2,0.8-2.7,0.8-4.4v-23H335.8z"/>
		<path class="st0" d="M350.8,154.5h8.7v38.2h-8.7V154.5z"/>
		<path class="st0" d="M373,162.1h-9.1v-7.6h26.9v7.6h-9.1v30.6H373V162.1z"/>
		<path class="st0" d="M395.2,154.5h24.4v7.6h-15.8v7.7h15.6v7.4h-15.6v7.9h15.8v7.6h-24.4V154.5L395.2,154.5z"/>
		<path class="st0" d="M446.4,184.9c1.7,0,3.4-0.2,4.9-0.8s2.5-1,3.2-1.5l3.7,7.4c-0.9,0.8-2.4,1.5-4.6,2.3s-4.7,1.2-7.9,1.2
			c-2.8,0-5.4-0.5-8-1.5c-2.4-1-4.6-2.4-6.5-4.2c-1.8-1.7-3.4-3.9-4.4-6.2c-1-2.4-1.6-5-1.6-7.9s0.6-5.4,1.6-7.9s2.5-4.5,4.4-6.4
			c1.8-1.8,4-3.2,6.6-4.2c2.4-1,5.1-1.5,8-1.5c3,0,5.7,0.3,7.9,1.2c2.2,0.8,3.7,1.6,4.6,2.3l-3.7,7.4c-0.7-0.6-1.8-1-3.2-1.5
			c-1.5-0.5-3.1-0.8-4.9-0.8c-2,0-3.7,0.3-5.2,0.9s-2.7,1.4-3.7,2.5c-1,1-1.7,2.3-2.2,3.6c-0.5,1.4-0.7,2.8-0.7,4.2
			c0,1.5,0.2,2.9,0.7,4.3c0.5,1.4,1.3,2.5,2.2,3.6c1,1,2.2,1.8,3.7,2.5C442.8,184.5,444.5,184.9,446.4,184.9z"/>
		<path class="st0" d="M470.6,162.1h-9.1v-7.6h26.8v7.6h-9.1v30.6h-8.7v-30.6H470.6z"/>
		<path class="st0" d="M515.1,154.5h8.7V178c0,3.1-0.6,5.9-1.8,8.2s-3,4-5.3,5.3s-5.1,1.8-8.2,1.8c-3.2,0-6-0.6-8.3-1.8
			s-4-3-5.3-5.3s-1.8-5.1-1.8-8.2v-23.5h8.7v23c0,1.7,0.2,3.2,0.8,4.4c0.6,1.2,1.4,2.1,2.3,2.7c1,0.6,2.2,0.9,3.6,0.9
			c1.4,0,2.5-0.3,3.6-0.9c1-0.6,1.7-1.5,2.3-2.7c0.6-1.2,0.8-2.7,0.8-4.4L515.1,154.5L515.1,154.5z"/>
		<path class="st0" d="M529.8,154.5h15.6c2.2,0,4.2,0.5,5.9,1.4c1.7,0.9,3.1,2.3,4.2,4c1,1.7,1.5,3.8,1.5,6.2s-0.5,4.4-1.3,5.9
			c-0.8,1.5-1.8,2.7-3.1,3.5c-1.2,0.8-2.3,1.3-3.4,1.4l9.2,15.8h-9.7l-8.3-15.1h-2.1v15.1h-8.7v-38.2H529.8z M538.5,171.6h3.8
			c1.5,0,2.9-0.3,4-1.2s1.7-2.1,1.7-4c0-2-0.6-3.2-1.7-3.9c-1.2-0.7-2.4-1.2-4-1.2h-3.9v10.3H538.5z"/>
		<path class="st0" d="M573.7,154.5h8.5l15.1,38.2h-9.2l-2.8-7.6h-14.7l-2.8,7.6h-9.2L573.7,154.5z M573.7,177.5h8.9l-4.4-12.5h-0.1
			L573.7,177.5z"/>
	</g>
	<g>
		<path class="st0" d="M197.5,98.9h9.9v35h15.8v8.7h-25.8V98.9L197.5,98.9z"/>
		<path class="st0" d="M227.2,120.8c0-3.2,0.6-6.1,1.7-8.9s2.7-5.2,4.7-7.2c2.1-2.1,4.4-3.7,7.2-4.9c2.8-1.2,5.7-1.7,8.9-1.7
			c3.2,0,6.2,0.6,8.9,1.7c2.7,1.2,5.1,2.8,7.2,4.9c2.1,2.1,3.6,4.5,4.7,7.2c1.2,2.8,1.6,5.7,1.6,8.9c0,3.2-0.6,6.2-1.6,8.9
			c-1,2.8-2.7,5.2-4.6,7.3s-4.4,3.7-7.2,4.9c-2.8,1.2-5.8,1.7-9,1.7c-3.4,0-6.5-0.6-9.1-1.7c-2.8-1.2-5.1-2.8-7.2-4.9
			c-2-2.1-3.5-4.5-4.6-7.3C227.8,126.9,227.2,123.9,227.2,120.8z M237.6,120.8c0,2.5,0.5,4.7,1.5,6.8c1,2.1,2.4,3.6,4.3,4.9
			c1.8,1.2,3.9,1.8,6.4,1.8c2.4,0,4.5-0.6,6.4-1.8c1.8-1.2,3.2-2.8,4.3-4.9c1-2.1,1.5-4.3,1.5-6.8c0-2.5-0.5-4.7-1.5-6.8
			c-1-2-2.4-3.6-4.3-4.9c-1.8-1.2-3.9-1.8-6.4-1.8c-2.4,0-4.5,0.6-6.4,1.8c-1.8,1.2-3.2,2.8-4.3,4.9
			C238.1,116,237.6,118.2,237.6,120.8z"/>
		<path class="st0" d="M278.5,98.9h35.9l-21.7,35H313v8.7h-37.6l21.7-35h-18.6v-8.7H278.5z"/>
		<path class="st0" d="M333.7,98.9h9.8l17.2,43.8h-10.6l-3.1-8.8h-16.8l-3.2,8.8h-10.6L333.7,98.9z M333.6,125.2h10.3l-5.1-14.3
			h-0.1L333.6,125.2z"/>
		<path class="st0" d="M381.7,98.9h17.9c2.5,0,4.9,0.6,6.8,1.6c2,1,3.6,2.5,4.7,4.6c1.2,2.1,1.7,4.4,1.7,7.2s-0.5,5-1.5,6.8
			c-1,1.7-2.2,3.1-3.6,3.9c-1.4,0.9-2.7,1.4-3.8,1.6l10.6,18.1h-11.1l-9.5-17.3h-2.4v17.3h-9.9V98.9L381.7,98.9z M391.6,118.5h4.4
			c1.7,0,3.4-0.5,4.6-1.3c1.3-0.8,2-2.4,2-4.6c0-2.2-0.7-3.7-2-4.5c-1.3-0.8-2.9-1.3-4.6-1.3h-4.4V118.5z"/>
		<path class="st0" d="M432.2,98.9h9.8l17.2,43.8h-10.6l-3.1-8.8h-16.9l-3.2,8.8h-10.6L432.2,98.9z M431.9,125.2h10.3l-5.1-14.3H437
			L431.9,125.2z"/>
		<path class="st0" d="M509.3,98.9v43.8h-9.8V117l0.5-7.3l-1.7,8.4l-7.4,21.1h-9.7l-7.3-21.1l-1.6-8.4l0.5,7.3v25.8h-9.9V98.9h13.9
			l8.8,29.2l0.6,3.5l0.6-3.5l8.8-29.2H509.3z"/>
		<path class="st0" d="M515.8,120.8c0-3.2,0.6-6.1,1.7-8.9s2.7-5.2,4.7-7.2c2.1-2.1,4.4-3.7,7.2-4.9c2.8-1.2,5.7-1.7,8.9-1.7
			s6.2,0.6,8.9,1.7c2.7,1.2,5.1,2.8,7.2,4.9s3.6,4.5,4.7,7.2c1.2,2.8,1.6,5.7,1.6,8.9c0,3.2-0.6,6.2-1.6,8.9c-1,2.8-2.7,5.2-4.6,7.3
			c-2,2.1-4.4,3.7-7.2,4.9c-2.8,1.2-5.8,1.7-9,1.7c-3.4,0-6.5-0.6-9.1-1.7c-2.7-1.2-5.1-2.8-7.2-4.9c-2-2.1-3.5-4.5-4.6-7.3
			C516.4,126.9,515.8,123.9,515.8,120.8z M526.1,120.8c0,2.5,0.5,4.7,1.5,6.8c1,2.1,2.4,3.6,4.3,4.9c1.8,1.2,3.9,1.8,6.4,1.8
			s4.5-0.6,6.4-1.8c1.8-1.2,3.2-2.8,4.3-4.9c1-2.1,1.5-4.3,1.5-6.8c0-2.5-0.5-4.7-1.5-6.8c-1-2-2.4-3.6-4.3-4.9
			c-1.8-1.2-3.9-1.8-6.4-1.8s-4.5,0.6-6.4,1.8c-1.8,1.2-3.2,2.8-4.3,4.9C526.7,116,526.1,118.2,526.1,120.8z"/>
		<path class="st0" d="M582.4,98.1c2.8,0,5.1,0.3,7.2,0.9c2.1,0.6,3.7,1.3,4.9,1.8c1.3,0.7,2,1.2,2.3,1.3l-4.7,8
			c-0.3-0.2-0.9-0.7-1.8-1.2c-0.8-0.5-1.8-0.9-3-1.4c-1.2-0.3-2.4-0.6-3.6-0.6c-1.7,0-3.1,0.3-4.2,0.9c-1,0.6-1.6,1.5-1.6,2.7
			c0,0.8,0.2,1.5,0.8,2.2c0.6,0.7,1.4,1.3,2.5,1.8c1.2,0.6,2.7,1.3,4.4,1.8c1.6,0.6,3.1,1.3,4.6,2.1c1.4,0.8,2.7,1.7,3.8,2.9
			c1,1.2,2,2.4,2.7,3.8c0.7,1.5,0.9,3.1,0.9,5c0,2.2-0.5,4.2-1.4,5.8c-0.9,1.6-2.1,3-3.7,4c-1.5,1-3.4,1.8-5.3,2.3
			c-2,0.5-4,0.8-6.1,0.8c-3,0-5.7-0.3-8.1-1c-2.4-0.7-4.3-1.4-5.8-2.2s-2.3-1.3-2.7-1.6l5-8.3c0.2,0.2,0.8,0.6,1.5,0.9
			c0.8,0.5,1.7,0.9,2.8,1.4c1.2,0.5,2.3,0.9,3.6,1.3c1.3,0.3,2.4,0.5,3.7,0.5c2.1,0,3.6-0.3,4.6-1.2c1-0.8,1.5-1.8,1.5-3.1
			c0-0.9-0.3-1.8-0.9-2.5c-0.7-0.7-1.6-1.5-2.9-2.1c-1.3-0.7-2.9-1.4-4.9-2.1c-2-0.8-3.7-1.7-5.4-2.8c-1.6-1.2-3-2.4-4-4.2
			c-1-1.6-1.5-3.7-1.5-6.1c0-2.4,0.7-4.6,2.1-6.4c1.4-1.7,3.2-3.2,5.4-4.2C577.3,98.6,579.7,98.1,582.4,98.1z"/>
	</g>
</g>
</svg>
