<?xml version="1.0" encoding="utf-8"?>
<!-- Generator: Adobe Illustrator 24.1.0, SVG Export Plug-In . SVG Version: 6.00 Build 0)  -->
<svg version="1.1" id="Layer_1" xmlns="http://www.w3.org/2000/svg" xmlns:xlink="http://www.w3.org/1999/xlink" x="0px" y="0px"
	 viewBox="0 0 795 300" style="enable-background:new 0 0 795 300;" xml:space="preserve">
<style type="text/css">
	.st0{fill:#FF3F3F;}
</style>
<g>
	<path class="st0" d="M257.4,239.7c0-1.1,0-2.1,0-3c0-52.1,0-104.5,0-156.6c0-1.6,0-3.2,0.2-4.8c1.4-10.2,7.2-14.9,18.4-15.1
		c19.2-0.2,38.5,0,57.9-0.2c1.6,0,2.4,0.5,2.2,2.2c-0.2,0.5,0,1,0,1.4c0,57.6,0,115.1,0,172.5c0,3.3,0,3.3-3.5,3.3
		c-7.5,0-15.1,0-22.4,0c-0.8,0-1.7,0-2.9,0c-0.2-1.3-0.2-2.2-0.2-3.2c0-20,0-40.1,0-59.9c0-3,0-3-3-3c-5.7,0-11.3,0-17.2,0
		c-0.2,1.3-0.2,2.2-0.2,3.2c0,20,0,40.1,0,60.3c0,2.2-0.6,3-2.9,2.9c-7.8-0.2-15.7,0-23.5-0.2C259.5,239.8,258.5,239.7,257.4,239.7z
		 M286.5,117.1c0,9.4,0,18.8,0,28.1c0,1.7,0.6,2.4,2.2,2.2c5.4-0.2,10.7-0.2,16.1,0c1.6,0,2.2-0.5,2.2-2.2c0-18.9,0-37.7,0-56.6
		c0-1.7-0.6-2.4-2.4-2.2c-5.2,0.2-10.7,0.2-15.9,0c-1.9,0-2.4,0.6-2.4,2.5C286.7,98.2,286.5,107.7,286.5,117.1z"/>
	<path class="st0" d="M119.7,239.8c0-59.9,0-119.4,0-179.2c1-0.2,1.9-0.2,2.9-0.2c18.8,0,37.4,0,56.1,0c0.6,0,1.3,0,1.9,0
		c12.2,1,17.5,6.4,17.6,18.6c0.2,22.3,0,44.5,0,66.8c0,6.8-2.9,11.9-9.5,14.2c-0.3,0.2-0.6,0.5-1.3,0.8c0.8,0.5,1.3,0.8,1.9,0.8
		c5.9,1.6,8.9,5.1,9.1,11.3c0.2,5.4,0.2,10.7,0.2,16.1c0,16.1,0,32.3,0,48.3c0,2.1-0.5,2.9-2.5,2.7c-7.9-0.2-15.9-0.2-23.8,0
		c-2.2,0-2.5-0.8-2.5-2.9c0.2-19.9,0-39.7,0-59.6c0-4.3,0.5-3.8-3.7-3.8c-4.3,0-8.6,0-12.7,0s-3.7-0.5-3.7,3.7c0,19.6,0,39.1,0,58.8
		c0,4.3,0.5,3.8-4,3.8c-7.5,0-14.8,0-22.3,0C121.6,239.8,120.7,239.8,119.7,239.8z M169,117.1c0-9.5,0-18.9,0-28.5
		c0-1.7-0.5-2.4-2.2-2.4c-5.2,0.2-10.3,0.2-15.7,0c-1.9,0-2.5,0.6-2.5,2.5c0.2,18.8,0.2,37.5,0,56.4c0,1.7,0.5,2.4,2.2,2.4
		c5.2-0.2,10.3-0.2,15.7,0c1.7,0,2.5-0.5,2.5-2.5C169,135.8,169,126.5,169,117.1z"/>
	<path class="st0" d="M0,239.8c0-1.1,0-2.2,0-3.2c0-57.7,0-115.4,0-173.1c0-3.2,0-3.2,3.2-3.2c7.6,0,15.1,0.2,22.7-0.2
		c2.5,0,3,0.8,3,3c-0.2,48.8,0,97.5,0,146.1c0,4.8-0.3,4.3,4.1,4.3c9.1,0,18.1,0.2,27.2,0c2.1,0,2.7,0.6,2.7,2.7
		c-0.2,7-0.2,14,0,21.1c0,1.9-0.5,2.5-2.4,2.5L0,239.8z"/>
</g>
</svg>
